<svg width="255" height="34" viewBox="0 0 255 34" fill="none" xmlns="http://www.w3.org/2000/svg">
<path d="M39.0479 13.4227L45.1003 33.3208H29.3347L22.6152 17.7831L12.3001 26.6827V33.3208H0L12.2025 0H24.5025V12.5441L39.8288 0H56.4241L39.0479 13.4227Z" fill="white"/>
<path d="M105.677 9.9084C106.214 13.7156 94.0115 19.6053 93.5234 23.3636C92.7913 29.0744 87.9591 33.3208 82.1995 33.3208H57.2577C51.547 33.3208 46.7148 29.0744 45.9827 23.4124C45.4457 19.6053 57.6482 13.7156 58.1851 9.9084C58.9173 4.24646 63.7494 0 69.4602 0H94.402C100.113 0 104.945 4.24646 105.677 9.9084ZM80.7353 21.3624C81.2234 18.9219 93.4258 14.3989 92.9377 11.9584C92.5472 9.9572 90.7901 8.54172 88.7401 8.54172C85.0305 8.54172 78.8317 8.54172 75.0733 8.54172C73.0721 8.54172 71.3149 9.9572 70.9245 11.9584C70.3876 14.3989 58.2339 18.9219 58.722 21.3624C59.1125 23.3636 60.8696 24.7791 62.9197 24.7791C66.6292 24.7791 72.8281 24.7791 76.5376 24.7791C78.5876 24.7791 80.3448 23.3636 80.7353 21.3624Z" fill="white"/>
<path d="M143.748 0H158.831L126.665 33.3208H114.414L106.653 0H121.686L120.515 22.1922L143.748 0Z" fill="white"/>
<path d="M194.099 12.3489C199.859 12.3489 192.928 16.9696 192.928 24.0958C192.928 31.1732 187.656 33.3208 181.945 33.3208C176.332 33.3208 163.056 33.3208 159.639 33.3208C153.929 33.3208 149.096 29.0744 148.364 23.3636H160.908C161.592 24.8279 163.105 25.7553 164.716 25.7553C166.619 25.7553 177.016 25.8041 177.016 25.8041C177.894 25.8041 180.286 25.5113 180.286 23.3636C180.286 21.216 177.845 20.9231 177.016 20.9231H159.102C153.343 20.9231 160.274 16.3513 160.274 9.22506C160.274 2.09882 165.545 0 171.256 0H193.416C199.126 0 203.959 4.24646 204.691 9.9084L192.147 9.95721C191.463 8.49291 189.95 7.51671 188.34 7.51671C187.022 7.51671 176.186 7.51671 176.186 7.51671C175.258 7.51671 172.916 7.80957 172.916 9.95721C172.916 12.1048 175.356 12.3489 176.186 12.3489H194.099Z" fill="white"/>
<path d="M237.624 13.4227L243.676 33.3208H227.911L221.191 17.7831L210.876 26.6827V33.3208H198.576L210.778 0H223.078V12.5441L238.405 0H255L237.624 13.4227Z" fill="white"/>
</svg>
