<svg xmlns="http://www.w3.org/2000/svg" xmlns:xlink="http://www.w3.org/1999/xlink" viewBox="0 0 620 520" width="620" height="520" preserveAspectRatio="xMidYMid meet" style="width: 100%; height: 100%; transform: translate3d(0px, 0px, 0px); content-visibility: visible;"><defs><clipPath id="__lottie_element_712"><rect width="620" height="520" x="0" y="0"></rect></clipPath><clipPath id="__lottie_element_728"><path d="M0,0 L1193,0 L1193,947 L0,947z"></path></clipPath><clipPath id="__lottie_element_736"><path d="M0,0 L381,0 L381,373 L0,373z"></path></clipPath><g id="__lottie_element_739"><g transform="matrix(1,0,0,1,75,278)" opacity="1" style="display: block;"><g opacity="1" transform="matrix(0.7080798149108887,-0.09846250712871552,-0.11554886400699615,0.7080798149108887,115.45968627929688,-91.87486267089844)"><path fill="rgb(13,63,51)" fill-opacity="1" d=" M0,-228.5 C126.19706726074219,-228.5 228.5,-126.19706726074219 228.5,0 C228.5,126.19706726074219 126.19706726074219,228.5 0,228.5 C-126.19706726074219,228.5 -228.5,126.19706726074219 -228.5,0 C-228.5,-126.19706726074219 -126.19706726074219,-228.5 0,-228.5 C0,-228.5 0,-228.5 0,-228.5z"></path><path stroke-linecap="butt" stroke-linejoin="round" fill-opacity="0" stroke="rgb(16,255,146)" stroke-opacity="1" stroke-width="1" d=" M0,-228.5 C126.19706726074219,-228.5 228.5,-126.19706726074219 228.5,0 C228.5,126.19706726074219 126.19706726074219,228.5 0,228.5 C-126.19706726074219,228.5 -228.5,126.19706726074219 -228.5,0 C-228.5,-126.19706726074219 -126.19706726074219,-228.5 0,-228.5 C0,-228.5 0,-228.5 0,-228.5z"></path></g></g></g><clipPath id="__lottie_element_743"><path d="M0,0 L381,0 L381,373 L0,373z"></path></clipPath><mask id="__lottie_element_739_1" mask-type="alpha"><use xlink:href="#__lottie_element_739"></use></mask><clipPath id="__lottie_element_757"><path d="M0,0 L732,0 L732,554 L0,554z"></path></clipPath><g id="__lottie_element_760"><g transform="matrix(1,0,0,1,547,264)" opacity="1" style="display: block;"><g opacity="1" transform="matrix(1,0,0,1,17.61336898803711,-32.49261474609375)"><path fill="rgb(255,255,255)" fill-opacity="1" d=" M166.85647583007812,-231.29200744628906 C166.85647583007812,-231.29200744628906 166.85647583007812,231.29200744628906 166.85647583007812,231.29200744628906 C166.85647583007812,231.29200744628906 -166.85647583007812,231.29200744628906 -166.85647583007812,231.29200744628906 C-166.85647583007812,231.29200744628906 -166.85647583007812,-231.29200744628906 -166.85647583007812,-231.29200744628906 C-166.85647583007812,-231.29200744628906 166.85647583007812,-231.29200744628906 166.85647583007812,-231.29200744628906z"></path></g></g></g><clipPath id="__lottie_element_764"><path d="M0,0 L732,0 L732,554 L0,554z"></path></clipPath><mask id="__lottie_element_760_1" mask-type="alpha"><use xlink:href="#__lottie_element_760"></use></mask><g id="__lottie_element_786"><g transform="matrix(1,0,0,1,0,0)" opacity="1" style="display: block;"><path fill="rgb(0,0,0)" fill-opacity="1" d=" M276,340.08 C276,340.08 191.15,340.08 191.15,340.08 C191.15,340.08 251.16,280.11 251.16,280.11 C251.16,280.11 229.66,258.62 229.66,258.62 C229.66,258.62 169.69,318.59 169.69,318.59 C169.69,318.59 169.69,233.77 169.69,233.77 C169.69,233.77 139.31,233.77 139.31,233.77 C139.31,233.77 139.31,318.59 139.31,318.59 C139.31,318.59 79.34,258.62 79.34,258.62 C79.34,258.62 57.84,280.11 57.84,280.11 C57.84,280.11 117.82,340.08 117.82,340.08 C117.82,340.08 33,340.08 33,340.08 C33,340.08 33,370.46 33,370.46 C33,370.46 117.82,370.46 117.82,370.46 C117.82,370.46 57.84,430.43 57.84,430.43 C57.84,430.43 79.34,451.93 79.34,451.93 C79.34,451.93 139.31,391.92 139.31,391.92 C139.31,391.92 139.31,476.77 139.31,476.77 C139.31,476.77 169.69,476.77 169.69,476.77 C169.69,476.77 169.69,391.92 169.69,391.92 C169.69,391.92 229.66,451.93 229.66,451.93 C229.66,451.93 251.16,430.43 251.16,430.43 C251.16,430.43 191.15,370.46 191.15,370.46 C191.15,370.46 276,370.46 276,370.46 C276,370.46 276,340.08 276,340.08 C276,340.08 276,340.08 276,340.08z"></path><g opacity="0" transform="matrix(1.5,0,0,1.5,33,233.77011108398438)"></g></g></g><filter id="__lottie_element_792" filterUnits="objectBoundingBox" x="0%" y="0%" width="100%" height="100%"><feComponentTransfer in="SourceGraphic"><feFuncA type="table" tableValues="1.0 0.0"></feFuncA></feComponentTransfer></filter><mask id="__lottie_element_786_2" mask-type="alpha"><g filter="url(#__lottie_element_792)"><rect width="620" height="520" x="0" y="0" fill="#ffffff" opacity="0"></rect><use xlink:href="#__lottie_element_786"></use></g></mask><g id="__lottie_element_794"><g transform="matrix(1,0,0,1,0,0)" opacity="1" style="display: block;"><path fill="rgb(0,0,0)" fill-opacity="1" d=" M587,120.31 C587,120.31 502.15,120.31 502.15,120.31 C502.15,120.31 562.16,60.34 562.16,60.34 C562.16,60.34 540.66,38.84 540.66,38.84 C540.66,38.84 480.69,98.82 480.69,98.82 C480.69,98.82 480.69,14 480.69,14 C480.69,14 450.31,14 450.31,14 C450.31,14 450.31,98.82 450.31,98.82 C450.31,98.82 390.34,38.84 390.34,38.84 C390.34,38.84 368.84,60.34 368.84,60.34 C368.84,60.34 428.82,120.31 428.82,120.31 C428.82,120.31 344,120.31 344,120.31 C344,120.31 344,150.69 344,150.69 C344,150.69 428.82,150.69 428.82,150.69 C428.82,150.69 368.84,210.66 368.84,210.66 C368.84,210.66 390.34,232.16 390.34,232.16 C390.34,232.16 450.31,172.15 450.31,172.15 C450.31,172.15 450.31,257 450.31,257 C450.31,257 480.69,257 480.69,257 C480.69,257 480.69,172.15 480.69,172.15 C480.69,172.15 540.66,232.16 540.66,232.16 C540.66,232.16 562.16,210.66 562.16,210.66 C562.16,210.66 502.15,150.69 502.15,150.69 C502.15,150.69 587,150.69 587,150.69 C587,150.69 587,120.31 587,120.31 C587,120.31 587,120.31 587,120.31z"></path><g opacity="1" transform="matrix(1.5,0,0,1.5,344,14)"></g></g></g><filter id="__lottie_element_800" filterUnits="objectBoundingBox" x="0%" y="0%" width="100%" height="100%"><feComponentTransfer in="SourceGraphic"><feFuncA type="table" tableValues="1.0 0.0"></feFuncA></feComponentTransfer></filter><mask id="__lottie_element_794_2" mask-type="alpha"><g filter="url(#__lottie_element_800)"><rect width="620" height="520" x="0" y="0" fill="#ffffff" opacity="0"></rect><use xlink:href="#__lottie_element_794"></use></g></mask></defs><g clip-path="url(#__lottie_element_712)"><g mask="url(#__lottie_element_794_2)" style="display: block;"><g transform="matrix(1,0,0,1,0,0)" opacity="1"><g opacity="1" transform="matrix(1,0,0,1,0,0)"><path fill="rgb(0,0,0)" fill-opacity="0" d=" M593,7 C593,7 593,263 593,263 C593,263 338,263 338,263 C338,263 338,7 338,7 C338,7 593,7 593,7z"></path></g><g opacity="1" transform="matrix(1.5,0,0,1.5,344,14)"><path stroke-linecap="butt" stroke-linejoin="miter" fill-opacity="0" stroke-miterlimit="4" stroke="rgb(255,255,255)" stroke-opacity="0.20000000298023224" stroke-width="2" d=" M162,70.87384033203125 C162,70.87384033203125 105.4350814819336,70.87384033203125 105.4350814819336,70.87384033203125 C105.4350814819336,70.87384033203125 145.4366912841797,30.890857696533203 145.4366912841797,30.890857696533203 C145.4366912841797,30.890857696533203 131.10914611816406,16.563312530517578 131.10914611816406,16.563312530517578 C131.10914611816406,16.563312530517578 91.12616729736328,56.546295166015625 91.12616729736328,56.546295166015625 C91.12616729736328,56.546295166015625 91.12616729736328,0 91.12616729736328,0 C91.12616729736328,0 70.87384033203125,0 70.87384033203125,0 C70.87384033203125,0 70.87384033203125,56.546295166015625 70.87384033203125,56.546295166015625 C70.87384033203125,56.546295166015625 30.890857696533203,16.563312530517578 30.890857696533203,16.563312530517578 C30.890857696533203,16.563312530517578 16.563312530517578,30.890857696533203 16.563312530517578,30.890857696533203 C16.563312530517578,30.890857696533203 56.546295166015625,70.87384033203125 56.546295166015625,70.87384033203125 C56.546295166015625,70.87384033203125 0,70.87384033203125 0,70.87384033203125 C0,70.87384033203125 0,91.12616729736328 0,91.12616729736328 C0,91.12616729736328 56.546295166015625,91.12616729736328 56.546295166015625,91.12616729736328 C56.546295166015625,91.12616729736328 16.563312530517578,131.10914611816406 16.563312530517578,131.10914611816406 C16.563312530517578,131.10914611816406 30.890857696533203,145.4366912841797 30.890857696533203,145.4366912841797 C30.890857696533203,145.4366912841797 70.87384033203125,105.4350814819336 70.87384033203125,105.4350814819336 C70.87384033203125,105.4350814819336 70.87384033203125,162 70.87384033203125,162 C70.87384033203125,162 91.12616729736328,162 91.12616729736328,162 C91.12616729736328,162 91.12616729736328,105.4350814819336 91.12616729736328,105.4350814819336 C91.12616729736328,105.4350814819336 131.10914611816406,145.4366912841797 131.10914611816406,145.4366912841797 C131.10914611816406,145.4366912841797 145.4366912841797,131.10914611816406 145.4366912841797,131.10914611816406 C145.4366912841797,131.10914611816406 105.4350814819336,91.12616729736328 105.4350814819336,91.12616729736328 C105.4350814819336,91.12616729736328 162,91.12616729736328 162,91.12616729736328 C162,91.12616729736328 162,70.87384033203125 162,70.87384033203125 C162,70.87384033203125 162,70.87384033203125 162,70.87384033203125z"></path></g></g></g><g mask="url(#__lottie_element_786_2)" style="display: block;"><g transform="matrix(1,0,0,1,0,0)" opacity="1"><g opacity="1" transform="matrix(1,0,0,1,0,0)"><path fill="rgb(0,0,0)" fill-opacity="0" d=" M282,227 C282,227 282,483 282,483 C282,483 26,483 26,483 C26,483 26,227 26,227 C26,227 282,227 282,227z"></path></g><g opacity="0" transform="matrix(1.5,0,0,1.5,33,233.77011108398438)"><path stroke-linecap="butt" stroke-linejoin="miter" fill-opacity="0" stroke-miterlimit="4" stroke="rgb(255,255,255)" stroke-opacity="0.20000000298023224" stroke-width="2" d=" M162,70.87384033203125 C162,70.87384033203125 105.4350814819336,70.87384033203125 105.4350814819336,70.87384033203125 C105.4350814819336,70.87384033203125 145.4366912841797,30.890857696533203 145.4366912841797,30.890857696533203 C145.4366912841797,30.890857696533203 131.10914611816406,16.563312530517578 131.10914611816406,16.563312530517578 C131.10914611816406,16.563312530517578 91.12616729736328,56.546295166015625 91.12616729736328,56.546295166015625 C91.12616729736328,56.546295166015625 91.12616729736328,0 91.12616729736328,0 C91.12616729736328,0 70.87384033203125,0 70.87384033203125,0 C70.87384033203125,0 70.87384033203125,56.546295166015625 70.87384033203125,56.546295166015625 C70.87384033203125,56.546295166015625 30.890857696533203,16.563312530517578 30.890857696533203,16.563312530517578 C30.890857696533203,16.563312530517578 16.563312530517578,30.890857696533203 16.563312530517578,30.890857696533203 C16.563312530517578,30.890857696533203 56.546295166015625,70.87384033203125 56.546295166015625,70.87384033203125 C56.546295166015625,70.87384033203125 0,70.87384033203125 0,70.87384033203125 C0,70.87384033203125 0,91.12616729736328 0,91.12616729736328 C0,91.12616729736328 56.546295166015625,91.12616729736328 56.546295166015625,91.12616729736328 C56.546295166015625,91.12616729736328 16.563312530517578,131.10914611816406 16.563312530517578,131.10914611816406 C16.563312530517578,131.10914611816406 30.890857696533203,145.4366912841797 30.890857696533203,145.4366912841797 C30.890857696533203,145.4366912841797 70.87384033203125,105.4350814819336 70.87384033203125,105.4350814819336 C70.87384033203125,105.4350814819336 70.87384033203125,162 70.87384033203125,162 C70.87384033203125,162 91.12616729736328,162 91.12616729736328,162 C91.12616729736328,162 91.12616729736328,105.4350814819336 91.12616729736328,105.4350814819336 C91.12616729736328,105.4350814819336 131.10914611816406,145.4366912841797 131.10914611816406,145.4366912841797 C131.10914611816406,145.4366912841797 145.4366912841797,131.10914611816406 145.4366912841797,131.10914611816406 C145.4366912841797,131.10914611816406 105.4350814819336,91.12616729736328 105.4350814819336,91.12616729736328 C105.4350814819336,91.12616729736328 162,91.12616729736328 162,91.12616729736328 C162,91.12616729736328 162,70.87384033203125 162,70.87384033203125 C162,70.87384033203125 162,70.87384033203125 162,70.87384033203125z"></path></g></g></g><g clip-path="url(#__lottie_element_728)" transform="matrix(0.7080808877944946,-0.09846322238445282,-0.11554691940546036,0.708080530166626,-258.9779052734375,-7.281391143798828)" opacity="1" style="display: block;"><g transform="matrix(1,0,0,1,874,475)" opacity="1" style="display: block;"><g opacity="1" transform="matrix(1,0,0,1,37.2150764465332,37.65719985961914)"><path fill="rgb(13,63,51)" fill-opacity="1" d=" M0,-228.5 C126.1091537475586,-228.5 228.5,-126.1091537475586 228.5,0 C228.5,126.1091537475586 126.1091537475586,228.5 0,228.5 C-126.1091537475586,228.5 -228.5,126.1091537475586 -228.5,0 C-228.5,-126.1091537475586 -126.1091537475586,-228.5 0,-228.5z"></path><path stroke-linecap="butt" stroke-linejoin="round" fill-opacity="0" stroke="rgb(16,255,146)" stroke-opacity="1" stroke-width="1" d=" M0,-228.5 C126.1091537475586,-228.5 228.5,-126.1091537475586 228.5,0 C228.5,126.1091537475586 126.1091537475586,228.5 0,228.5 C-126.1091537475586,228.5 -228.5,126.1091537475586 -228.5,0 C-228.5,-126.1091537475586 -126.1091537475586,-228.5 0,-228.5z"></path></g></g><g transform="matrix(1,0,0,1,874,475)" opacity="1" style="display: block;"><g opacity="1" transform="matrix(0.9999998211860657,0,0,1.0000001192092896,0.00007621462282259017,0.0006987644592300057)"><path fill="rgb(13,63,51)" fill-opacity="1" d=" M0,-228.5 C126.1091537475586,-228.5 228.5,-126.1091537475586 228.5,0 C228.5,126.1091537475586 126.1091537475586,228.5 0,228.5 C-126.1091537475586,228.5 -228.5,126.1091537475586 -228.5,0 C-228.5,-126.1091537475586 -126.1091537475586,-228.5 0,-228.5z"></path><path stroke-linecap="butt" stroke-linejoin="round" fill-opacity="0" stroke="rgb(16,255,146)" stroke-opacity="1" stroke-width="1" d=" M0,-228.5 C126.1091537475586,-228.5 228.5,-126.1091537475586 228.5,0 C228.5,126.1091537475586 126.1091537475586,228.5 0,228.5 C-126.1091537475586,228.5 -228.5,126.1091537475586 -228.5,0 C-228.5,-126.1091537475586 -126.1091537475586,-228.5 0,-228.5z"></path></g></g><g transform="matrix(1,0,0,1,874,475)" opacity="1" style="display: block;"><g opacity="1" transform="matrix(1,0,0,1,0,0)"><path fill="rgb(13,63,51)" fill-opacity="0.009999999776482582" d=" M0,-197.5 C109.00025177001953,-197.5 197.5,-109.00025177001953 197.5,0 C197.5,109.00025177001953 109.00025177001953,197.5 0,197.5 C-109.00025177001953,197.5 -197.5,109.00025177001953 -197.5,0 C-197.5,-109.00025177001953 -109.00025177001953,-197.5 0,-197.5z"></path><path stroke-linecap="butt" stroke-linejoin="round" fill-opacity="0" stroke="rgb(16,255,146)" stroke-opacity="0.25" stroke-width="1" d=" M0,-197.5 C109.00025177001953,-197.5 197.5,-109.00025177001953 197.5,0 C197.5,109.00025177001953 109.00025177001953,197.5 0,197.5 C-109.00025177001953,197.5 -197.5,109.00025177001953 -197.5,0 C-197.5,-109.00025177001953 -109.00025177001953,-197.5 0,-197.5z"></path></g></g><g transform="matrix(1,0,0,1,874,475)" opacity="1" style="display: block;"><g opacity="1" transform="matrix(1,0,0,0.9999999403953552,-126.49948120117188,-108.4990463256836)"><g opacity="1" transform="matrix(1,0,0,1,0,0)"><path fill="rgb(13,63,51)" fill-opacity="1" d=" M35.90357971191406,143.77244567871094 C35.90357971191406,143.77244567871094 0,143.77244567871094 0,143.77244567871094 C0,143.77244567871094 0,107.82940673828125 0,107.82940673828125 C0,107.82940673828125 35.90357971191406,107.82940673828125 35.90357971191406,107.82940673828125 C35.90357971191406,107.82940673828125 35.90357971191406,143.77244567871094 35.90357971191406,143.77244567871094 C35.90357971191406,143.77244567871094 35.90357971191406,143.77244567871094 35.90357971191406,143.77244567871094z M35.90357971191406,143.77244567871094 C35.90357971191406,143.77244567871094 71.8077621459961,143.77244567871094 71.8077621459961,143.77244567871094 C71.8077621459961,143.77244567871094 71.8077621459961,179.7157745361328 71.8077621459961,179.7157745361328 C71.8077621459961,179.7157745361328 35.90357971191406,179.7157745361328 35.90357971191406,179.7157745361328 C35.90357971191406,179.7157745361328 35.90357971191406,143.77244567871094 35.90357971191406,143.77244567871094 C35.90357971191406,143.77244567871094 35.90357971191406,143.77244567871094 35.90357971191406,143.77244567871094z M179.5196990966797,179.7157745361328 C179.5196990966797,179.7157745361328 179.5196990966797,143.77244567871094 179.5196990966797,143.77244567871094 C179.5196990966797,143.77244567871094 215.42388916015625,143.77244567871094 215.42388916015625,143.77244567871094 C215.42388916015625,143.77244567871094 215.42388916015625,179.7157745361328 215.42388916015625,179.7157745361328 C215.42388916015625,179.7157745361328 179.5196990966797,179.7157745361328 179.5196990966797,179.7157745361328 C179.5196990966797,179.7157745361328 179.5196990966797,179.7157745361328 179.5196990966797,179.7157745361328z M215.42388916015625,143.77244567871094 C215.42388916015625,143.77244567871094 215.42388916015625,107.82940673828125 215.42388916015625,107.82940673828125 C215.42388916015625,107.82940673828125 251.3274688720703,107.82940673828125 251.3274688720703,107.82940673828125 C251.3274688720703,107.82940673828125 251.3274688720703,143.77244567871094 251.3274688720703,143.77244567871094 C251.3274688720703,143.77244567871094 215.42388916015625,143.77244567871094 215.42388916015625,143.77244567871094 C215.42388916015625,143.77244567871094 215.42388916015625,143.77244567871094 215.42388916015625,143.77244567871094z M71.8077621459961,107.82940673828125 C71.8077621459961,107.82940673828125 71.8077621459961,0 71.8077621459961,0 C71.8077621459961,0 107.5147476196289,0 107.5147476196289,0 C107.5147476196289,0 107.5147476196289,35.94303512573242 107.5147476196289,35.94303512573242 C107.5147476196289,35.94303512573242 107.71194458007812,35.94303512573242 107.71194458007812,35.94303512573242 C107.71194458007812,35.94303512573242 107.71194458007812,107.82940673828125 107.71194458007812,107.82940673828125 C107.71194458007812,107.82940673828125 71.8077621459961,107.82940673828125 71.8077621459961,107.82940673828125 C71.8077621459961,107.82940673828125 71.8077621459961,107.82940673828125 71.8077621459961,107.82940673828125z M143.6155242919922,107.82940673828125 C143.6155242919922,107.82940673828125 143.6155242919922,0 143.6155242919922,0 C143.6155242919922,0 179.5196990966797,0 179.5196990966797,0 C179.5196990966797,0 179.5196990966797,107.82940673828125 179.5196990966797,107.82940673828125 C179.5196990966797,107.82940673828125 143.6155242919922,107.82940673828125 143.6155242919922,107.82940673828125 C143.6155242919922,107.82940673828125 143.6155242919922,107.82940673828125 143.6155242919922,107.82940673828125z M71.8077621459961,179.7157745361328 C71.8077621459961,179.7157745361328 179.5196990966797,179.7157745361328 179.5196990966797,179.7157745361328 C179.5196990966797,179.7157745361328 179.5196990966797,215.6588134765625 179.5196990966797,215.6588134765625 C179.5196990966797,215.6588134765625 71.8077621459961,215.6588134765625 71.8077621459961,215.6588134765625 C71.8077621459961,215.6588134765625 71.8077621459961,179.7157745361328 71.8077621459961,179.7157745361328 C71.8077621459961,179.7157745361328 71.8077621459961,179.7157745361328 71.8077621459961,179.7157745361328z"></path><path stroke-linecap="butt" stroke-linejoin="round" fill-opacity="0" stroke="rgb(16,255,146)" stroke-opacity="1" stroke-width="1" d=" M35.90357971191406,143.77244567871094 C35.90357971191406,143.77244567871094 0,143.77244567871094 0,143.77244567871094 C0,143.77244567871094 0,107.82940673828125 0,107.82940673828125 C0,107.82940673828125 35.90357971191406,107.82940673828125 35.90357971191406,107.82940673828125 C35.90357971191406,107.82940673828125 35.90357971191406,143.77244567871094 35.90357971191406,143.77244567871094 C35.90357971191406,143.77244567871094 35.90357971191406,143.77244567871094 35.90357971191406,143.77244567871094z M35.90357971191406,143.77244567871094 C35.90357971191406,143.77244567871094 71.8077621459961,143.77244567871094 71.8077621459961,143.77244567871094 C71.8077621459961,143.77244567871094 71.8077621459961,179.7157745361328 71.8077621459961,179.7157745361328 C71.8077621459961,179.7157745361328 35.90357971191406,179.7157745361328 35.90357971191406,179.7157745361328 C35.90357971191406,179.7157745361328 35.90357971191406,143.77244567871094 35.90357971191406,143.77244567871094 C35.90357971191406,143.77244567871094 35.90357971191406,143.77244567871094 35.90357971191406,143.77244567871094z M179.5196990966797,179.7157745361328 C179.5196990966797,179.7157745361328 179.5196990966797,143.77244567871094 179.5196990966797,143.77244567871094 C179.5196990966797,143.77244567871094 215.42388916015625,143.77244567871094 215.42388916015625,143.77244567871094 C215.42388916015625,143.77244567871094 215.42388916015625,179.7157745361328 215.42388916015625,179.7157745361328 C215.42388916015625,179.7157745361328 179.5196990966797,179.7157745361328 179.5196990966797,179.7157745361328 C179.5196990966797,179.7157745361328 179.5196990966797,179.7157745361328 179.5196990966797,179.7157745361328z M215.42388916015625,143.77244567871094 C215.42388916015625,143.77244567871094 215.42388916015625,107.82940673828125 215.42388916015625,107.82940673828125 C215.42388916015625,107.82940673828125 251.3274688720703,107.82940673828125 251.3274688720703,107.82940673828125 C251.3274688720703,107.82940673828125 251.3274688720703,143.77244567871094 251.3274688720703,143.77244567871094 C251.3274688720703,143.77244567871094 215.42388916015625,143.77244567871094 215.42388916015625,143.77244567871094 C215.42388916015625,143.77244567871094 215.42388916015625,143.77244567871094 215.42388916015625,143.77244567871094z M71.8077621459961,107.82940673828125 C71.8077621459961,107.82940673828125 71.8077621459961,0 71.8077621459961,0 C71.8077621459961,0 107.5147476196289,0 107.5147476196289,0 C107.5147476196289,0 107.5147476196289,35.94303512573242 107.5147476196289,35.94303512573242 C107.5147476196289,35.94303512573242 107.71194458007812,35.94303512573242 107.71194458007812,35.94303512573242 C107.71194458007812,35.94303512573242 107.71194458007812,107.82940673828125 107.71194458007812,107.82940673828125 C107.71194458007812,107.82940673828125 71.8077621459961,107.82940673828125 71.8077621459961,107.82940673828125 C71.8077621459961,107.82940673828125 71.8077621459961,107.82940673828125 71.8077621459961,107.82940673828125z M143.6155242919922,107.82940673828125 C143.6155242919922,107.82940673828125 143.6155242919922,0 143.6155242919922,0 C143.6155242919922,0 179.5196990966797,0 179.5196990966797,0 C179.5196990966797,0 179.5196990966797,107.82940673828125 179.5196990966797,107.82940673828125 C179.5196990966797,107.82940673828125 143.6155242919922,107.82940673828125 143.6155242919922,107.82940673828125 C143.6155242919922,107.82940673828125 143.6155242919922,107.82940673828125 143.6155242919922,107.82940673828125z M71.8077621459961,179.7157745361328 C71.8077621459961,179.7157745361328 179.5196990966797,179.7157745361328 179.5196990966797,179.7157745361328 C179.5196990966797,179.7157745361328 179.5196990966797,215.6588134765625 179.5196990966797,215.6588134765625 C179.5196990966797,215.6588134765625 71.8077621459961,215.6588134765625 71.8077621459961,215.6588134765625 C71.8077621459961,215.6588134765625 71.8077621459961,179.7157745361328 71.8077621459961,179.7157745361328 C71.8077621459961,179.7157745361328 71.8077621459961,179.7157745361328 71.8077621459961,179.7157745361328z"></path><g opacity="1" transform="matrix(1,0,0,1,0,0)"></g><g opacity="1" transform="matrix(1,0,0,1,0,0)"></g><g opacity="1" transform="matrix(1,0,0,1,0,0)"></g><g opacity="1" transform="matrix(1,0,0,1,0,0)"></g><g opacity="1" transform="matrix(1,0,0,1,0,0)"></g><g opacity="1" transform="matrix(1,0,0,1,0,0)"></g><g opacity="1" transform="matrix(1,0,0,1,0,0)"></g></g></g></g><g clip-path="url(#__lottie_element_757)" transform="matrix(1.445061206817627,0.2009439319372177,0.235814169049263,1.4450613260269165,-0.024453293532133102,-0.3221501410007477)" opacity="1" style="display: block;"><g mask="url(#__lottie_element_760_1)" style="display: block;"><g clip-path="url(#__lottie_element_764)" transform="matrix(1,0,0,1,0,0)" opacity="1"><g transform="matrix(1,0,0,1,547,264)" opacity="1" style="display: block;"><path fill="rgb(0,0,0)" fill-opacity="0" d=" M185,-264 C185,-264 185,290 185,290 C185,290 -547,290 -547,290 C-547,290 -547,-264 -547,-264 C-547,-264 185,-264 185,-264z"></path></g><g transform="matrix(1,0,0,1,547,264)" opacity="1" style="display: block;"><g opacity="1" transform="matrix(0.9135526418685913,-0.0901876762509346,-0.10751384496688843,0.9137856960296631,-29.288589477539062,23.305953979492188)"><g opacity="1" transform="matrix(0.7713623046875,-0.031621336936950684,-0.03570317476987839,0.7713624835014343,46.420753479003906,-35.6884765625)"><path fill="rgb(16,255,146)" fill-opacity="1" d=" M0,-228.5 C126.1091537475586,-228.5 228.5,-126.1091537475586 228.5,0 C228.5,126.1091537475586 126.1091537475586,228.5 0,228.5 C-126.1091537475586,228.5 -228.5,126.1091537475586 -228.5,0 C-228.5,-126.1091537475586 -126.1091537475586,-228.5 0,-228.5z"></path><path stroke-linecap="butt" stroke-linejoin="round" fill-opacity="0" stroke="rgb(16,255,146)" stroke-opacity="1" stroke-width="1" d=" M0,-228.5 C126.1091537475586,-228.5 228.5,-126.1091537475586 228.5,0 C228.5,126.1091537475586 126.1091537475586,228.5 0,228.5 C-126.1091537475586,228.5 -228.5,126.1091537475586 -228.5,0 C-228.5,-126.1091537475586 -126.1091537475586,-228.5 0,-228.5z"></path></g><g opacity="1" transform="matrix(0.7713624238967896,-0.03162137791514397,-0.03570323437452316,0.7713623046875,-47.2824821472168,-115.38084411621094)"><g opacity="1" transform="matrix(1,0,0,1,0,0)"><path fill="rgb(0,0,0)" fill-opacity="1" d=" M35.90357971191406,143.77244567871094 C35.90357971191406,143.77244567871094 0,143.77244567871094 0,143.77244567871094 C0,143.77244567871094 0,107.82940673828125 0,107.82940673828125 C0,107.82940673828125 35.90357971191406,107.82940673828125 35.90357971191406,107.82940673828125 C35.90357971191406,107.82940673828125 35.90357971191406,143.77244567871094 35.90357971191406,143.77244567871094 C35.90357971191406,143.77244567871094 35.90357971191406,143.77244567871094 35.90357971191406,143.77244567871094z M35.90357971191406,143.77244567871094 C35.90357971191406,143.77244567871094 71.8077621459961,143.77244567871094 71.8077621459961,143.77244567871094 C71.8077621459961,143.77244567871094 71.8077621459961,179.7157745361328 71.8077621459961,179.7157745361328 C71.8077621459961,179.7157745361328 35.90357971191406,179.7157745361328 35.90357971191406,179.7157745361328 C35.90357971191406,179.7157745361328 35.90357971191406,143.77244567871094 35.90357971191406,143.77244567871094 C35.90357971191406,143.77244567871094 35.90357971191406,143.77244567871094 35.90357971191406,143.77244567871094z M179.5196990966797,179.7157745361328 C179.5196990966797,179.7157745361328 179.5196990966797,143.77244567871094 179.5196990966797,143.77244567871094 C179.5196990966797,143.77244567871094 215.42388916015625,143.77244567871094 215.42388916015625,143.77244567871094 C215.42388916015625,143.77244567871094 215.42388916015625,179.7157745361328 215.42388916015625,179.7157745361328 C215.42388916015625,179.7157745361328 179.5196990966797,179.7157745361328 179.5196990966797,179.7157745361328 C179.5196990966797,179.7157745361328 179.5196990966797,179.7157745361328 179.5196990966797,179.7157745361328z M215.42388916015625,143.77244567871094 C215.42388916015625,143.77244567871094 215.42388916015625,107.82940673828125 215.42388916015625,107.82940673828125 C215.42388916015625,107.82940673828125 251.3274688720703,107.82940673828125 251.3274688720703,107.82940673828125 C251.3274688720703,107.82940673828125 251.3274688720703,143.77244567871094 251.3274688720703,143.77244567871094 C251.3274688720703,143.77244567871094 215.42388916015625,143.77244567871094 215.42388916015625,143.77244567871094 C215.42388916015625,143.77244567871094 215.42388916015625,143.77244567871094 215.42388916015625,143.77244567871094z M71.8077621459961,107.82940673828125 C71.8077621459961,107.82940673828125 71.8077621459961,0 71.8077621459961,0 C71.8077621459961,0 107.5147476196289,0 107.5147476196289,0 C107.5147476196289,0 107.5147476196289,35.94303512573242 107.5147476196289,35.94303512573242 C107.5147476196289,35.94303512573242 107.71194458007812,35.94303512573242 107.71194458007812,35.94303512573242 C107.71194458007812,35.94303512573242 107.71194458007812,107.82940673828125 107.71194458007812,107.82940673828125 C107.71194458007812,107.82940673828125 71.8077621459961,107.82940673828125 71.8077621459961,107.82940673828125 C71.8077621459961,107.82940673828125 71.8077621459961,107.82940673828125 71.8077621459961,107.82940673828125z M143.6155242919922,107.82940673828125 C143.6155242919922,107.82940673828125 143.6155242919922,0 143.6155242919922,0 C143.6155242919922,0 179.5196990966797,0 179.5196990966797,0 C179.5196990966797,0 179.5196990966797,107.82940673828125 179.5196990966797,107.82940673828125 C179.5196990966797,107.82940673828125 143.6155242919922,107.82940673828125 143.6155242919922,107.82940673828125 C143.6155242919922,107.82940673828125 143.6155242919922,107.82940673828125 143.6155242919922,107.82940673828125z M71.8077621459961,179.7157745361328 C71.8077621459961,179.7157745361328 179.5196990966797,179.7157745361328 179.5196990966797,179.7157745361328 C179.5196990966797,179.7157745361328 179.5196990966797,215.6588134765625 179.5196990966797,215.6588134765625 C179.5196990966797,215.6588134765625 71.8077621459961,215.6588134765625 71.8077621459961,215.6588134765625 C71.8077621459961,215.6588134765625 71.8077621459961,179.7157745361328 71.8077621459961,179.7157745361328 C71.8077621459961,179.7157745361328 71.8077621459961,179.7157745361328 71.8077621459961,179.7157745361328z"></path><g opacity="1" transform="matrix(1,0,0,1,0,0)"></g><g opacity="1" transform="matrix(1,0,0,1,0,0)"></g><g opacity="1" transform="matrix(1,0,0,1,0,0)"></g><g opacity="1" transform="matrix(1,0,0,1,0,0)"></g><g opacity="1" transform="matrix(1,0,0,1,0,0)"></g><g opacity="1" transform="matrix(1,0,0,1,0,0)"></g><g opacity="1" transform="matrix(1,0,0,1,0,0)"></g></g></g></g></g></g></g></g><g clip-path="url(#__lottie_element_736)" transform="matrix(1.445061206817627,0.2009439319372177,0.235814169049263,1.4450613260269165,554.8831787109375,167.76632690429688)" opacity="1" style="display: block;"><g mask="url(#__lottie_element_739_1)" style="display: block;"><g clip-path="url(#__lottie_element_743)" transform="matrix(1,0,0,1,0,0)" opacity="1"><g transform="matrix(1,0,0,1,75,278)" opacity="1" style="display: block;"><path fill="rgb(0,0,0)" fill-opacity="0" d=" M306,-278 C306,-278 306,95 306,95 C306,95 -75,95 -75,95 C-75,95 -75,-278 -75,-278 C-75,-278 306,-278 306,-278z"></path></g><g transform="matrix(1,0,0,1,75,278)" opacity="1" style="display: block;"><g opacity="1" transform="matrix(1,0,0,1,312.2649841308594,-110.87504577636719)"><path fill="rgb(255,255,255)" fill-opacity="1" d=" M15.053980827331543,-231.29200744628906 C15.053980827331543,-231.29200744628906 15.053980827331543,231.29200744628906 15.053980827331543,231.29200744628906 C15.053980827331543,231.29200744628906 -15.053980827331543,231.29200744628906 -15.053980827331543,231.29200744628906 C-15.053980827331543,231.29200744628906 -15.053980827331543,-231.29200744628906 -15.053980827331543,-231.29200744628906 C-15.053980827331543,-231.29200744628906 15.053980827331543,-231.29200744628906 15.053980827331543,-231.29200744628906z"></path></g></g></g></g></g></g><g transform="matrix(1,0,0,1,0,0)" opacity="1" style="display: block;"><g opacity="1" transform="matrix(1,0,0,1,69.67414855957031,325.67413330078125)"><path fill="rgb(255,255,255)" fill-opacity="0.20000000298023224" d=" M99.65170288085938,43.59690475463867 C99.65170288085938,43.59690475463867 64.85669708251953,43.59690475463867 64.85669708251953,43.59690475463867 C64.85669708251953,43.59690475463867 89.46305084228516,19.002016067504883 89.46305084228516,19.002016067504883 C89.46305084228516,19.002016067504883 80.64969635009766,10.1886568069458 80.64969635009766,10.1886568069458 C80.64969635009766,10.1886568069458 56.05480194091797,34.783546447753906 56.05480194091797,34.783546447753906 C56.05480194091797,34.783546447753906 56.05480194091797,0 56.05480194091797,0 C56.05480194091797,0 43.59690475463867,0 43.59690475463867,0 C43.59690475463867,0 43.59690475463867,34.783546447753906 43.59690475463867,34.783546447753906 C43.59690475463867,34.783546447753906 19.002016067504883,10.1886568069458 19.002016067504883,10.1886568069458 C19.002016067504883,10.1886568069458 10.1886568069458,19.002016067504883 10.1886568069458,19.002016067504883 C10.1886568069458,19.002016067504883 34.783546447753906,43.59690475463867 34.783546447753906,43.59690475463867 C34.783546447753906,43.59690475463867 0,43.59690475463867 0,43.59690475463867 C0,43.59690475463867 0,56.05480194091797 0,56.05480194091797 C0,56.05480194091797 34.783546447753906,56.05480194091797 34.783546447753906,56.05480194091797 C34.783546447753906,56.05480194091797 10.1886568069458,80.64969635009766 10.1886568069458,80.64969635009766 C10.1886568069458,80.64969635009766 19.002016067504883,89.46305084228516 19.002016067504883,89.46305084228516 C19.002016067504883,89.46305084228516 43.59690475463867,64.85669708251953 43.59690475463867,64.85669708251953 C43.59690475463867,64.85669708251953 43.59690475463867,99.65170288085938 43.59690475463867,99.65170288085938 C43.59690475463867,99.65170288085938 56.05480194091797,99.65170288085938 56.05480194091797,99.65170288085938 C56.05480194091797,99.65170288085938 56.05480194091797,64.85669708251953 56.05480194091797,64.85669708251953 C56.05480194091797,64.85669708251953 80.64969635009766,89.46305084228516 80.64969635009766,89.46305084228516 C80.64969635009766,89.46305084228516 89.46305084228516,80.64969635009766 89.46305084228516,80.64969635009766 C89.46305084228516,80.64969635009766 64.85669708251953,56.05480194091797 64.85669708251953,56.05480194091797 C64.85669708251953,56.05480194091797 99.65170288085938,56.05480194091797 99.65170288085938,56.05480194091797 C99.65170288085938,56.05480194091797 99.65170288085938,43.59690475463867 99.65170288085938,43.59690475463867 C99.65170288085938,43.59690475463867 99.65170288085938,43.59690475463867 99.65170288085938,43.59690475463867z"></path></g></g><g transform="matrix(1,0,0,1,0,0)" opacity="1" style="display: block;"><g opacity="0" transform="matrix(1,0,0,1,104.67414855957031,14.000015258789062)"><path fill="rgb(255,255,255)" fill-opacity="0.20000000298023224" d=" M99.65170288085938,43.59690475463867 C99.65170288085938,43.59690475463867 64.85669708251953,43.59690475463867 64.85669708251953,43.59690475463867 C64.85669708251953,43.59690475463867 89.46305084228516,19.002016067504883 89.46305084228516,19.002016067504883 C89.46305084228516,19.002016067504883 80.64969635009766,10.1886568069458 80.64969635009766,10.1886568069458 C80.64969635009766,10.1886568069458 56.05480194091797,34.783546447753906 56.05480194091797,34.783546447753906 C56.05480194091797,34.783546447753906 56.05480194091797,0 56.05480194091797,0 C56.05480194091797,0 43.59690475463867,0 43.59690475463867,0 C43.59690475463867,0 43.59690475463867,34.783546447753906 43.59690475463867,34.783546447753906 C43.59690475463867,34.783546447753906 19.002016067504883,10.1886568069458 19.002016067504883,10.1886568069458 C19.002016067504883,10.1886568069458 10.1886568069458,19.002016067504883 10.1886568069458,19.002016067504883 C10.1886568069458,19.002016067504883 34.783546447753906,43.59690475463867 34.783546447753906,43.59690475463867 C34.783546447753906,43.59690475463867 0,43.59690475463867 0,43.59690475463867 C0,43.59690475463867 0,56.05480194091797 0,56.05480194091797 C0,56.05480194091797 34.783546447753906,56.05480194091797 34.783546447753906,56.05480194091797 C34.783546447753906,56.05480194091797 10.1886568069458,80.64969635009766 10.1886568069458,80.64969635009766 C10.1886568069458,80.64969635009766 19.002016067504883,89.46305084228516 19.002016067504883,89.46305084228516 C19.002016067504883,89.46305084228516 43.59690475463867,64.85669708251953 43.59690475463867,64.85669708251953 C43.59690475463867,64.85669708251953 43.59690475463867,99.65170288085938 43.59690475463867,99.65170288085938 C43.59690475463867,99.65170288085938 56.05480194091797,99.65170288085938 56.05480194091797,99.65170288085938 C56.05480194091797,99.65170288085938 56.05480194091797,64.85669708251953 56.05480194091797,64.85669708251953 C56.05480194091797,64.85669708251953 80.64969635009766,89.46305084228516 80.64969635009766,89.46305084228516 C80.64969635009766,89.46305084228516 89.46305084228516,80.64969635009766 89.46305084228516,80.64969635009766 C89.46305084228516,80.64969635009766 64.85669708251953,56.05480194091797 64.85669708251953,56.05480194091797 C64.85669708251953,56.05480194091797 99.65170288085938,56.05480194091797 99.65170288085938,56.05480194091797 C99.65170288085938,56.05480194091797 99.65170288085938,43.59690475463867 99.65170288085938,43.59690475463867 C99.65170288085938,43.59690475463867 99.65170288085938,43.59690475463867 99.65170288085938,43.59690475463867z"></path></g></g><g transform="matrix(1,0,0,1,0,0)" opacity="1" style="display: block;"><g opacity="0" transform="matrix(1,0,0,1,443.37322998046875,327.6434326171875)"><path fill="rgb(255,255,255)" fill-opacity="0.20000000298023224" d=" M99.65170288085938,43.59690475463867 C99.65170288085938,43.59690475463867 64.85669708251953,43.59690475463867 64.85669708251953,43.59690475463867 C64.85669708251953,43.59690475463867 89.46305084228516,19.002016067504883 89.46305084228516,19.002016067504883 C89.46305084228516,19.002016067504883 80.64969635009766,10.1886568069458 80.64969635009766,10.1886568069458 C80.64969635009766,10.1886568069458 56.05480194091797,34.783546447753906 56.05480194091797,34.783546447753906 C56.05480194091797,34.783546447753906 56.05480194091797,0 56.05480194091797,0 C56.05480194091797,0 43.59690475463867,0 43.59690475463867,0 C43.59690475463867,0 43.59690475463867,34.783546447753906 43.59690475463867,34.783546447753906 C43.59690475463867,34.783546447753906 19.002016067504883,10.1886568069458 19.002016067504883,10.1886568069458 C19.002016067504883,10.1886568069458 10.1886568069458,19.002016067504883 10.1886568069458,19.002016067504883 C10.1886568069458,19.002016067504883 34.783546447753906,43.59690475463867 34.783546447753906,43.59690475463867 C34.783546447753906,43.59690475463867 0,43.59690475463867 0,43.59690475463867 C0,43.59690475463867 0,56.05480194091797 0,56.05480194091797 C0,56.05480194091797 34.783546447753906,56.05480194091797 34.783546447753906,56.05480194091797 C34.783546447753906,56.05480194091797 10.1886568069458,80.64969635009766 10.1886568069458,80.64969635009766 C10.1886568069458,80.64969635009766 19.002016067504883,89.46305084228516 19.002016067504883,89.46305084228516 C19.002016067504883,89.46305084228516 43.59690475463867,64.85669708251953 43.59690475463867,64.85669708251953 C43.59690475463867,64.85669708251953 43.59690475463867,99.65170288085938 43.59690475463867,99.65170288085938 C43.59690475463867,99.65170288085938 56.05480194091797,99.65170288085938 56.05480194091797,99.65170288085938 C56.05480194091797,99.65170288085938 56.05480194091797,64.85669708251953 56.05480194091797,64.85669708251953 C56.05480194091797,64.85669708251953 80.64969635009766,89.46305084228516 80.64969635009766,89.46305084228516 C80.64969635009766,89.46305084228516 89.46305084228516,80.64969635009766 89.46305084228516,80.64969635009766 C89.46305084228516,80.64969635009766 64.85669708251953,56.05480194091797 64.85669708251953,56.05480194091797 C64.85669708251953,56.05480194091797 99.65170288085938,56.05480194091797 99.65170288085938,56.05480194091797 C99.65170288085938,56.05480194091797 99.65170288085938,43.59690475463867 99.65170288085938,43.59690475463867 C99.65170288085938,43.59690475463867 99.65170288085938,43.59690475463867 99.65170288085938,43.59690475463867z"></path></g></g></g></svg>