<svg width="720" height="720" viewBox="0 0 720 720" fill="none" xmlns="http://www.w3.org/2000/svg">
<rect width="720" height="720" rx="130" fill="#202020"/>
<path d="M292.117 511.444H377.498C443.561 511.444 476.15 489.619 476.15 448.477C476.15 407.925 441.054 385.511 372.632 385.511H292.707V511.444H292.117ZM292.117 206.787V323.724H367.176C423.506 323.724 451.966 302.49 451.966 265.034C451.966 226.252 421.737 206.344 365.996 206.344C365.406 206.197 292.117 206.787 292.117 206.787ZM174 575V512.034H223.695V207.966H174V145H374.401C466.418 145 522.158 186.732 522.158 260.61C522.158 309.126 494.288 338.176 458.012 352.627C508.887 366.488 546.49 402.912 546.49 452.606C546.49 531.351 485.293 575 385.461 575C384.724 575 174 575 174 575Z" fill="white"/>
</svg>
