<?xml version="1.0" encoding="UTF-8" standalone="no"?>
<!DOCTYPE svg PUBLIC "-//W3C//DTD SVG 1.1//EN" "http://www.w3.org/Graphics/SVG/1.1/DTD/svg11.dtd">
<svg xmlns="http://www.w3.org/2000/svg" version="1.1" viewBox="0.00 0.00 256.00 256.00">
<g stroke-width="2.00" fill="none" stroke-linecap="butt">
<path stroke="#e2e2e3" vector-effect="non-scaling-stroke" d="
  M 80.19 205.58
  Q 82.46 206.36 83.09 208.19
  Q 83.31 208.83 83.99 208.87
  Q 84.39 208.90 84.39 209.35
  A 0.61 0.58 -75.0 0 0 84.67 209.86
  Q 88.54 212.19 92.50 210.22
  A 0.12 0.12 0.0 0 0 92.50 210.00
  Q 92.36 209.94 92.23 209.86
  Q 91.96 209.72 92.24 209.59
  Q 95.71 207.97 97.32 205.71
  Q 99.47 202.67 101.31 201.21
  Q 101.69 200.91 101.91 200.48
  C 102.88 198.64 105.03 196.86 107.11 194.91
  Q 107.98 194.10 109.79 191.76
  C 111.53 189.50 113.81 189.39 115.98 188.33
  Q 116.42 188.12 116.90 188.12
  C 120.46 188.13 124.76 187.67 128.19 188.53
  C 132.69 189.64 139.47 188.77 143.36 188.13
  Q 147.96 187.36 150.30 184.21
  C 151.43 182.68 153.36 181.15 153.79 179.00
  Q 154.05 177.65 154.34 177.10
  C 155.18 175.50 156.22 174.53 156.77 172.78
  Q 158.34 167.77 161.15 164.30
  Q 161.75 163.56 161.87 162.95
  Q 161.97 162.51 162.19 162.12
  L 167.57 152.79
  A 0.46 0.42 87.4 0 1 167.67 152.67
  Q 168.43 151.97 168.83 150.86
  Q 170.65 145.93 169.88 141.08
  C 169.66 139.67 168.78 138.56 168.41 137.07
  C 167.78 134.59 166.62 132.87 165.89 130.57
  Q 165.24 128.48 164.48 127.06
  C 162.70 123.76 160.72 119.18 166.29 118.07
  C 173.22 116.70 181.69 119.19 188.09 116.51
  Q 190.01 115.70 191.33 114.01
  Q 193.61 111.08 195.37 107.79
  C 195.73 107.12 196.45 106.55 196.59 105.69
  Q 196.67 105.20 196.94 104.79
  C 197.99 103.19 198.69 101.47 199.75 99.85
  C 201.02 97.90 201.57 95.64 202.86 93.78
  Q 203.55 92.79 204.15 91.75
  Q 204.93 90.39 206.15 88.75
  Q 207.84 86.47 208.78 83.74
  Q 208.95 83.25 209.34 82.92
  Q 210.23 82.17 210.38 80.94
  Q 210.44 80.47 210.73 80.09
  Q 213.76 76.09 211.60 71.64
  Q 209.61 67.55 209.12 65.31"
/>
<path stroke="#9a93d8" vector-effect="non-scaling-stroke" d="
  M 209.12 65.31
  Q 208.45 63.01 206.98 61.47"
/>
<path stroke="#a59cf7" vector-effect="non-scaling-stroke" d="
  M 206.98 61.47
  C 205.98 59.14 202.04 56.73 199.39 56.28
  Q 197.91 56.03 195.60 56.03
  Q 148.49 56.00 101.39 56.31
  Q 93.71 56.36 90.28 62.03
  Q 80.14 78.79 70.08 95.59
  Q 69.25 96.97 69.13 99.83
  Q 69.05 101.80 69.99 103.98
  Q 76.25 118.54 82.53 133.11
  Q 82.73 133.59 82.52 134.06
  Q 81.73 135.77 80.32 138.09
  Q 72.74 150.63 65.16 163.17
  C 62.30 167.89 61.63 171.15 63.96 176.23
  Q 69.51 188.34 74.63 200.62
  Q 76.03 203.95 80.19 205.58"
/>
<path stroke="#4030d0" vector-effect="non-scaling-stroke" d="
  M 206.98 61.47
  Q 201.69 57.33 195.25 57.53
  Q 182.85 57.90 175.50 57.70
  C 173.95 57.66 172.63 58.09 171.18 57.98
  Q 168.21 57.77 165.24 57.60
  Q 164.93 57.59 164.85 57.88
  Q 164.78 58.14 164.49 58.14
  Q 161.52 58.07 159.30 58.50
  Q 158.84 58.58 158.73 59.04
  C 158.40 60.35 157.36 60.67 155.98 61.32
  Q 155.20 61.69 154.32 61.62
  Q 153.84 61.59 153.44 61.87
  C 151.57 63.18 149.93 62.95 147.75 63.10
  Q 146.96 63.15 146.49 63.77
  Q 146.43 63.85 146.52 63.89
  Q 146.64 63.95 146.76 64.01
  Q 146.99 64.13 146.86 64.35
  Q 146.72 64.57 146.39 64.73
  A 0.31 0.30 -56.9 0 0 146.51 65.31
  Q 162.76 65.60 178.98 65.31
  Q 179.18 65.31 179.19 65.51
  L 179.19 65.52
  Q 179.19 65.73 178.98 65.73
  L 167.79 65.80"
/>
<path stroke="#887fdb" vector-effect="non-scaling-stroke" d="
  M 167.79 65.80
  L 137.47 65.85
  A 0.73 0.73 0.0 0 0 136.80 66.88
  L 152.71 102.54"
/>
<path stroke="#a59cf7" vector-effect="non-scaling-stroke" d="
  M 152.71 102.54
  Q 153.15 103.00 153.70 103.13"
/>
<path stroke="#4030d0" vector-effect="non-scaling-stroke" d="
  M 153.70 103.13
  Q 152.24 103.99 151.01 101.92
  A 0.29 0.29 0.0 0 0 150.52 101.90
  L 147.66 106.16
  Q 147.42 106.52 147.60 106.91
  Q 147.94 107.65 147.25 108.08
  A 0.77 0.75 -18.8 0 0 146.89 108.79
  Q 146.98 109.94 146.25 110.81
  Q 145.95 111.15 146.22 111.52
  Q 146.60 112.05 146.81 112.77"
/>
<path stroke="#887fdb" vector-effect="non-scaling-stroke" d="
  M 146.81 112.77
  L 85.64 112.92
  A 0.73 0.72 78.0 0 0 84.98 113.94
  L 87.93 120.53"
/>
<path stroke="#a59cf7" vector-effect="non-scaling-stroke" d="
  M 87.93 120.53
  L 90.30 125.99
  A 0.97 0.96 -11.5 0 0 91.19 126.57
  L 152.01 126.45
  Q 152.46 126.45 152.29 126.03
  L 148.63 117.24"
/>
<path stroke="#887fdb" vector-effect="non-scaling-stroke" d="
  M 148.63 117.24
  L 146.81 112.77"
/>
<path stroke="#4030d0" vector-effect="non-scaling-stroke" d="
  M 146.81 112.77
  Q 147.72 112.44 147.84 113.86
  Q 147.88 114.32 148.08 114.73
  L 153.42 125.50
  A 1.50 1.50 0.0 0 1 152.24 127.66
  C 148.42 128.05 144.02 127.46 140.20 128.31
  Q 139.95 128.36 139.82 128.51
  Q 139.61 128.74 139.59 129.06
  Q 139.57 129.47 139.18 129.38
  Q 138.58 129.23 138.26 129.60
  Q 138.03 129.86 137.69 129.96
  L 132.87 131.34
  A 1.11 1.10 -15.3 0 0 132.11 132.67
  C 132.58 134.48 134.35 134.96 136.15 135.03
  Q 145.24 135.36 154.32 135.63
  Q 156.77 135.70 157.87 136.70
  Q 159.88 138.55 157.32 141.35"
/>
<path stroke="#887fdb" vector-effect="non-scaling-stroke" d="
  M 157.32 141.35
  Q 158.58 138.76 156.99 137.11
  Q 155.95 136.03 153.59 135.92
  C 150.21 135.76 146.14 136.01 143.47 136.02
  Q 119.61 136.06 95.89 136.06
  A 0.85 0.85 0.0 0 0 95.11 137.25
  L 101.30 151.18"
/>
<path stroke="#a59cf7" vector-effect="non-scaling-stroke" d="
  M 101.30 151.18
  L 102.54 154.05"
/>
<path stroke="#887fdb" vector-effect="non-scaling-stroke" d="
  M 102.54 154.05
  L 108.03 167.01"
/>
<path stroke="#4030d0" vector-effect="non-scaling-stroke" d="
  M 108.03 167.01
  L 109.42 171.88
  A 2.63 2.63 0.0 0 0 111.82 173.78
  L 119.44 174.15
  Q 119.46 174.15 119.46 174.17
  L 119.44 174.44
  Q 119.43 174.57 119.29 174.58
  L 109.92 174.66
  Q 109.41 174.67 109.19 175.13
  Q 107.10 179.44 103.82 182.90
  C 102.28 184.53 101.39 186.46 100.20 188.02
  Q 98.50 190.26 101.28 189.80
  Q 102.70 189.57 104.43 187.44
  Q 106.71 184.65 109.71 182.67
  Q 110.12 182.40 110.61 182.40
  L 141.14 182.49"
/>
<path stroke="#887fdb" vector-effect="non-scaling-stroke" d="
  M 141.14 182.49
  Q 126.74 183.68 111.75 183.10
  Q 110.17 183.04 109.37 183.86
  Q 99.90 193.64 90.38 203.38
  Q 86.53 207.33 80.19 205.58"
/>
<path stroke="#e2e2e3" vector-effect="non-scaling-stroke" d="
  M 156.36 142.52
  C 155.37 140.49 152.68 140.37 150.74 140.37
  Q 132.27 140.38 113.80 140.37
  C 111.96 140.37 109.01 139.83 106.60 140.26
  C 104.17 140.70 101.54 140.26 99.51 142.80
  Q 99.17 143.22 99.31 143.74
  L 101.30 151.18"
/>
<path stroke="#e2e2e3" vector-effect="non-scaling-stroke" d="
  M 198.29 71.98
  Q 198.37 71.42 197.56 70.93
  Q 197.09 70.65 196.38 70.65
  Q 171.43 70.60 146.47 70.62
  Q 145.01 70.63 143.95 71.32
  Q 142.38 72.34 142.00 73.23
  C 140.86 75.84 144.21 82.12 145.55 84.51
  C 146.42 86.08 146.98 88.05 148.25 89.69
  A 1.27 1.27 0.0 0 1 148.52 90.53
  Q 148.48 91.30 148.94 91.63
  Q 149.38 91.94 149.51 92.46
  C 150.40 95.74 151.71 98.59 152.90 101.74
  Q 153.04 102.11 152.71 102.54"
/>
<path stroke="#e2e2e3" vector-effect="non-scaling-stroke" d="
  M 148.63 117.24
  Q 121.74 117.04 94.69 117.11
  C 92.72 117.12 91.93 117.75 90.25 118.65
  Q 89.67 118.96 89.52 119.59
  Q 89.39 120.11 88.86 120.06
  Q 87.81 119.94 87.93 120.53"
/>
<path stroke="#e2e2e3" vector-effect="non-scaling-stroke" d="
  M 111.51 173.22
  C 110.83 170.53 109.53 168.10 108.73 165.53
  C 107.97 163.09 107.00 160.99 105.96 158.32
  Q 104.92 155.65 102.54 154.05"
/>
<path stroke="#887fdb" vector-effect="non-scaling-stroke" d="
  M 149.20 172.98
  L 163.66 148.73"
/>
<path stroke="#887fdb" vector-effect="non-scaling-stroke" d="
  M 160.39 120.34
  L 157.53 113.38
  Q 157.37 112.99 157.74 112.79
  Q 157.86 112.72 158.05 112.72"
/>
<path stroke="#887fdb" vector-effect="non-scaling-stroke" d="
  M 170.78 112.66
  C 174.95 112.72 179.98 113.46 183.56 111.62
  C 187.20 109.76 188.65 107.16 190.71 103.76
  Q 198.85 90.39 206.78 76.85"
/>
<path stroke="#7d76bc" vector-effect="non-scaling-stroke" d="
  M 209.12 65.31
  Q 210.54 71.49 206.78 76.85"
/>
<path stroke="#4030d0" vector-effect="non-scaling-stroke" d="
  M 206.78 76.85
  Q 205.96 77.83 205.12 78.74
  C 203.51 80.46 203.00 82.79 201.46 84.72
  Q 201.42 84.78 201.40 84.85
  Q 201.37 84.99 201.36 85.12
  A 0.36 0.36 0.0 0 1 201.27 85.33
  Q 198.98 88.35 197.14 91.66
  C 195.64 94.35 193.68 96.97 192.27 99.83
  C 191.08 102.24 189.81 104.03 188.42 106.15
  Q 186.59 108.95 184.78 110.24
  C 180.72 113.16 175.37 112.51 170.78 112.66"
/>
<path stroke="#7d76bc" vector-effect="non-scaling-stroke" d="
  M 170.78 112.66
  L 158.05 112.72"
/>
<path stroke="#4030d0" vector-effect="non-scaling-stroke" d="
  M 158.05 112.72
  Q 157.46 112.44 156.89 112.41
  Q 156.46 112.38 156.51 112.81
  C 156.68 114.28 157.27 115.27 157.74 116.59
  Q 158.57 118.88 160.39 120.34"
/>
<path stroke="#7d76bc" vector-effect="non-scaling-stroke" d="
  M 160.39 120.34
  Q 163.09 126.29 165.93 132.79
  Q 167.73 136.93 167.54 139.76
  Q 167.19 144.67 163.66 148.73"
/>
<path stroke="#4030d0" vector-effect="non-scaling-stroke" d="
  M 163.66 148.73
  Q 155.61 160.32 149.20 172.98"
/>
<path stroke="#7d76bc" vector-effect="non-scaling-stroke" d="
  M 149.20 172.98
  Q 146.43 178.82 141.14 182.49"
/>
<path stroke="#7d76bc" vector-effect="non-scaling-stroke" d="
  M 108.03 167.01
  L 109.64 170.23
  Q 109.84 170.64 109.85 171.09
  Q 109.90 172.35 111.51 173.22"
/>
<path stroke="#9a93d8" vector-effect="non-scaling-stroke" d="
  M 111.51 173.22
  L 136.43 173.12
  A 2.82 2.80 -74.5 0 0 138.84 171.75
  L 156.36 142.52"
/>
<path stroke="#7d76bc" vector-effect="non-scaling-stroke" d="
  M 156.36 142.52
  Q 156.76 141.76 157.32 141.35"
/>
<path stroke="#9a93d8" vector-effect="non-scaling-stroke" d="
  M 153.70 103.13
  Q 165.35 103.05 177.00 102.95
  Q 179.57 102.93 181.00 100.49
  Q 186.74 90.65 198.29 71.98"
/>
<path stroke="#7d76bc" vector-effect="non-scaling-stroke" d="
  M 198.29 71.98
  C 200.28 69.74 200.27 65.80 196.50 65.85
  Q 186.55 66.00 167.79 65.80"
/>
<path stroke="#a59cf7" vector-effect="non-scaling-stroke" d="
  M 86.72 103.05
  L 141.69 103.03
  A 0.36 0.36 0.0 0 0 142.02 102.53
  L 128.14 70.84"
/>
<path stroke="#887fdb" vector-effect="non-scaling-stroke" d="
  M 128.14 70.84
  L 126.17 66.39
  Q 125.93 65.86 125.36 65.86
  L 101.18 65.87
  A 3.12 3.11 -74.3 0 0 98.52 67.37
  Q 88.93 83.23 80.41 97.45
  Q 78.51 100.62 80.45 102.66
  Q 80.86 103.09 81.45 103.08
  L 86.72 103.05"
/>
<path stroke="#e2e2e3" vector-effect="non-scaling-stroke" d="
  M 128.14 70.84
  Q 117.13 70.37 107.99 70.60
  Q 104.82 70.67 102.40 72.65
  C 101.30 73.54 100.81 75.05 99.55 76.07
  Q 99.16 76.38 98.98 76.84
  C 98.48 78.14 97.46 78.80 96.88 79.90
  Q 93.51 86.33 89.93 92.66
  Q 89.65 93.16 89.51 93.70
  A 1.51 1.46 72.6 0 1 89.24 94.24
  Q 86.50 97.65 84.90 101.71
  Q 84.50 102.73 85.58 102.89
  L 86.72 103.05"
/>
<path stroke="#a59cf7" vector-effect="non-scaling-stroke" d="
  M 78.81 173.20
  L 99.64 173.13
  A 0.33 0.33 0.0 0 0 99.95 172.67
  L 90.62 151.36"
/>
<path stroke="#887fdb" vector-effect="non-scaling-stroke" d="
  M 90.62 151.36
  L 87.92 145.24
  A 0.36 0.35 -41.1 0 0 87.29 145.20
  Q 80.51 156.60 73.58 168.06
  Q 72.13 170.46 73.41 172.12
  C 74.60 173.65 77.03 173.32 78.81 173.20"
/>
<path stroke="#e2e2e3" vector-effect="non-scaling-stroke" d="
  M 90.62 151.36
  Q 86.38 156.40 82.67 162.95
  Q 82.37 163.49 82.34 163.97
  Q 82.31 164.49 81.95 164.87
  Q 79.61 167.38 78.77 170.67
  Q 78.65 171.12 78.33 171.47
  Q 77.46 172.40 78.81 173.20"
/>
<path stroke="#887fdb" vector-effect="non-scaling-stroke" d="
  M 78.71 182.96
  A 0.52 0.52 0.0 0 0 78.24 183.69
  L 83.56 195.67
  A 0.52 0.52 0.0 0 0 84.41 195.82
  L 95.85 183.58
  A 0.52 0.52 0.0 0 0 95.46 182.71
  L 78.71 182.96"
/>
</g>
<path fill="#ffffff" d="
  M 0.00 0.00
  L 256.00 0.00
  L 256.00 256.00
  L 0.00 256.00
  L 0.00 0.00
  Z
  M 80.19 205.58
  Q 82.46 206.36 83.09 208.19
  Q 83.31 208.83 83.99 208.87
  Q 84.39 208.90 84.39 209.35
  A 0.61 0.58 -75.0 0 0 84.67 209.86
  Q 88.54 212.19 92.50 210.22
  A 0.12 0.12 0.0 0 0 92.50 210.00
  Q 92.36 209.94 92.23 209.86
  Q 91.96 209.72 92.24 209.59
  Q 95.71 207.97 97.32 205.71
  Q 99.47 202.67 101.31 201.21
  Q 101.69 200.91 101.91 200.48
  C 102.88 198.64 105.03 196.86 107.11 194.91
  Q 107.98 194.10 109.79 191.76
  C 111.53 189.50 113.81 189.39 115.98 188.33
  Q 116.42 188.12 116.90 188.12
  C 120.46 188.13 124.76 187.67 128.19 188.53
  C 132.69 189.64 139.47 188.77 143.36 188.13
  Q 147.96 187.36 150.30 184.21
  C 151.43 182.68 153.36 181.15 153.79 179.00
  Q 154.05 177.65 154.34 177.10
  C 155.18 175.50 156.22 174.53 156.77 172.78
  Q 158.34 167.77 161.15 164.30
  Q 161.75 163.56 161.87 162.95
  Q 161.97 162.51 162.19 162.12
  L 167.57 152.79
  A 0.46 0.42 87.4 0 1 167.67 152.67
  Q 168.43 151.97 168.83 150.86
  Q 170.65 145.93 169.88 141.08
  C 169.66 139.67 168.78 138.56 168.41 137.07
  C 167.78 134.59 166.62 132.87 165.89 130.57
  Q 165.24 128.48 164.48 127.06
  C 162.70 123.76 160.72 119.18 166.29 118.07
  C 173.22 116.70 181.69 119.19 188.09 116.51
  Q 190.01 115.70 191.33 114.01
  Q 193.61 111.08 195.37 107.79
  C 195.73 107.12 196.45 106.55 196.59 105.69
  Q 196.67 105.20 196.94 104.79
  C 197.99 103.19 198.69 101.47 199.75 99.85
  C 201.02 97.90 201.57 95.64 202.86 93.78
  Q 203.55 92.79 204.15 91.75
  Q 204.93 90.39 206.15 88.75
  Q 207.84 86.47 208.78 83.74
  Q 208.95 83.25 209.34 82.92
  Q 210.23 82.17 210.38 80.94
  Q 210.44 80.47 210.73 80.09
  Q 213.76 76.09 211.60 71.64
  Q 209.61 67.55 209.12 65.31
  Q 208.45 63.01 206.98 61.47
  C 205.98 59.14 202.04 56.73 199.39 56.28
  Q 197.91 56.03 195.60 56.03
  Q 148.49 56.00 101.39 56.31
  Q 93.71 56.36 90.28 62.03
  Q 80.14 78.79 70.08 95.59
  Q 69.25 96.97 69.13 99.83
  Q 69.05 101.80 69.99 103.98
  Q 76.25 118.54 82.53 133.11
  Q 82.73 133.59 82.52 134.06
  Q 81.73 135.77 80.32 138.09
  Q 72.74 150.63 65.16 163.17
  C 62.30 167.89 61.63 171.15 63.96 176.23
  Q 69.51 188.34 74.63 200.62
  Q 76.03 203.95 80.19 205.58
  Z"
/>
<path fill="#4b39ef" d="
  M 206.98 61.47
  Q 201.69 57.33 195.25 57.53
  Q 182.85 57.90 175.50 57.70
  C 173.95 57.66 172.63 58.09 171.18 57.98
  Q 168.21 57.77 165.24 57.60
  Q 164.93 57.59 164.85 57.88
  Q 164.78 58.14 164.49 58.14
  Q 161.52 58.07 159.30 58.50
  Q 158.84 58.58 158.73 59.04
  C 158.40 60.35 157.36 60.67 155.98 61.32
  Q 155.20 61.69 154.32 61.62
  Q 153.84 61.59 153.44 61.87
  C 151.57 63.18 149.93 62.95 147.75 63.10
  Q 146.96 63.15 146.49 63.77
  Q 146.43 63.85 146.52 63.89
  Q 146.64 63.95 146.76 64.01
  Q 146.99 64.13 146.86 64.35
  Q 146.72 64.57 146.39 64.73
  A 0.31 0.30 -56.9 0 0 146.51 65.31
  Q 162.76 65.60 178.98 65.31
  Q 179.18 65.31 179.19 65.51
  L 179.19 65.52
  Q 179.19 65.73 178.98 65.73
  L 167.79 65.80
  L 137.47 65.85
  A 0.73 0.73 0.0 0 0 136.80 66.88
  L 152.71 102.54
  Q 153.15 103.00 153.70 103.13
  Q 152.24 103.99 151.01 101.92
  A 0.29 0.29 0.0 0 0 150.52 101.90
  L 147.66 106.16
  Q 147.42 106.52 147.60 106.91
  Q 147.94 107.65 147.25 108.08
  A 0.77 0.75 -18.8 0 0 146.89 108.79
  Q 146.98 109.94 146.25 110.81
  Q 145.95 111.15 146.22 111.52
  Q 146.60 112.05 146.81 112.77
  L 85.64 112.92
  A 0.73 0.72 78.0 0 0 84.98 113.94
  L 87.93 120.53
  L 90.30 125.99
  A 0.97 0.96 -11.5 0 0 91.19 126.57
  L 152.01 126.45
  Q 152.46 126.45 152.29 126.03
  L 148.63 117.24
  L 146.81 112.77
  Q 147.72 112.44 147.84 113.86
  Q 147.88 114.32 148.08 114.73
  L 153.42 125.50
  A 1.50 1.50 0.0 0 1 152.24 127.66
  C 148.42 128.05 144.02 127.46 140.20 128.31
  Q 139.95 128.36 139.82 128.51
  Q 139.61 128.74 139.59 129.06
  Q 139.57 129.47 139.18 129.38
  Q 138.58 129.23 138.26 129.60
  Q 138.03 129.86 137.69 129.96
  L 132.87 131.34
  A 1.11 1.10 -15.3 0 0 132.11 132.67
  C 132.58 134.48 134.35 134.96 136.15 135.03
  Q 145.24 135.36 154.32 135.63
  Q 156.77 135.70 157.87 136.70
  Q 159.88 138.55 157.32 141.35
  Q 158.58 138.76 156.99 137.11
  Q 155.95 136.03 153.59 135.92
  C 150.21 135.76 146.14 136.01 143.47 136.02
  Q 119.61 136.06 95.89 136.06
  A 0.85 0.85 0.0 0 0 95.11 137.25
  L 101.30 151.18
  L 102.54 154.05
  L 108.03 167.01
  L 109.42 171.88
  A 2.63 2.63 0.0 0 0 111.82 173.78
  L 119.44 174.15
  Q 119.46 174.15 119.46 174.17
  L 119.44 174.44
  Q 119.43 174.57 119.29 174.58
  L 109.92 174.66
  Q 109.41 174.67 109.19 175.13
  Q 107.10 179.44 103.82 182.90
  C 102.28 184.53 101.39 186.46 100.20 188.02
  Q 98.50 190.26 101.28 189.80
  Q 102.70 189.57 104.43 187.44
  Q 106.71 184.65 109.71 182.67
  Q 110.12 182.40 110.61 182.40
  L 141.14 182.49
  Q 126.74 183.68 111.75 183.10
  Q 110.17 183.04 109.37 183.86
  Q 99.90 193.64 90.38 203.38
  Q 86.53 207.33 80.19 205.58
  Q 76.03 203.95 74.63 200.62
  Q 69.51 188.34 63.96 176.23
  C 61.63 171.15 62.30 167.89 65.16 163.17
  Q 72.74 150.63 80.32 138.09
  Q 81.73 135.77 82.52 134.06
  Q 82.73 133.59 82.53 133.11
  Q 76.25 118.54 69.99 103.98
  Q 69.05 101.80 69.13 99.83
  Q 69.25 96.97 70.08 95.59
  Q 80.14 78.79 90.28 62.03
  Q 93.71 56.36 101.39 56.31
  Q 148.49 56.00 195.60 56.03
  Q 197.91 56.03 199.39 56.28
  C 202.04 56.73 205.98 59.14 206.98 61.47
  Z
  M 86.72 103.05
  L 141.69 103.03
  A 0.36 0.36 0.0 0 0 142.02 102.53
  L 128.14 70.84
  L 126.17 66.39
  Q 125.93 65.86 125.36 65.86
  L 101.18 65.87
  A 3.12 3.11 -74.3 0 0 98.52 67.37
  Q 88.93 83.23 80.41 97.45
  Q 78.51 100.62 80.45 102.66
  Q 80.86 103.09 81.45 103.08
  L 86.72 103.05
  Z
  M 78.81 173.20
  L 99.64 173.13
  A 0.33 0.33 0.0 0 0 99.95 172.67
  L 90.62 151.36
  L 87.92 145.24
  A 0.36 0.35 -41.1 0 0 87.29 145.20
  Q 80.51 156.60 73.58 168.06
  Q 72.13 170.46 73.41 172.12
  C 74.60 173.65 77.03 173.32 78.81 173.20
  Z
  M 78.71 182.96
  A 0.52 0.52 0.0 0 0 78.24 183.69
  L 83.56 195.67
  A 0.52 0.52 0.0 0 0 84.41 195.82
  L 95.85 183.58
  A 0.52 0.52 0.0 0 0 95.46 182.71
  L 78.71 182.96
  Z"
/>
<path fill="#3527b1" d="
  M 206.98 61.47
  Q 208.45 63.01 209.12 65.31
  Q 210.54 71.49 206.78 76.85
  Q 205.96 77.83 205.12 78.74
  C 203.51 80.46 203.00 82.79 201.46 84.72
  Q 201.42 84.78 201.40 84.85
  Q 201.37 84.99 201.36 85.12
  A 0.36 0.36 0.0 0 1 201.27 85.33
  Q 198.98 88.35 197.14 91.66
  C 195.64 94.35 193.68 96.97 192.27 99.83
  C 191.08 102.24 189.81 104.03 188.42 106.15
  Q 186.59 108.95 184.78 110.24
  C 180.72 113.16 175.37 112.51 170.78 112.66
  L 158.05 112.72
  Q 157.46 112.44 156.89 112.41
  Q 156.46 112.38 156.51 112.81
  C 156.68 114.28 157.27 115.27 157.74 116.59
  Q 158.57 118.88 160.39 120.34
  Q 163.09 126.29 165.93 132.79
  Q 167.73 136.93 167.54 139.76
  Q 167.19 144.67 163.66 148.73
  Q 155.61 160.32 149.20 172.98
  Q 146.43 178.82 141.14 182.49
  L 110.61 182.40
  Q 110.12 182.40 109.71 182.67
  Q 106.71 184.65 104.43 187.44
  Q 102.70 189.57 101.28 189.80
  Q 98.50 190.26 100.20 188.02
  C 101.39 186.46 102.28 184.53 103.82 182.90
  Q 107.10 179.44 109.19 175.13
  Q 109.41 174.67 109.92 174.66
  L 119.29 174.58
  Q 119.43 174.57 119.44 174.44
  L 119.46 174.17
  Q 119.46 174.15 119.44 174.15
  L 111.82 173.78
  A 2.63 2.63 0.0 0 1 109.42 171.88
  L 108.03 167.01
  L 109.64 170.23
  Q 109.84 170.64 109.85 171.09
  Q 109.90 172.35 111.51 173.22
  L 136.43 173.12
  A 2.82 2.80 -74.5 0 0 138.84 171.75
  L 156.36 142.52
  Q 156.76 141.76 157.32 141.35
  Q 159.88 138.55 157.87 136.70
  Q 156.77 135.70 154.32 135.63
  Q 145.24 135.36 136.15 135.03
  C 134.35 134.96 132.58 134.48 132.11 132.67
  A 1.11 1.10 -15.3 0 1 132.87 131.34
  L 137.69 129.96
  Q 138.03 129.86 138.26 129.60
  Q 138.58 129.23 139.18 129.38
  Q 139.57 129.47 139.59 129.06
  Q 139.61 128.74 139.82 128.51
  Q 139.95 128.36 140.20 128.31
  C 144.02 127.46 148.42 128.05 152.24 127.66
  A 1.50 1.50 0.0 0 0 153.42 125.50
  L 148.08 114.73
  Q 147.88 114.32 147.84 113.86
  Q 147.72 112.44 146.81 112.77
  Q 146.60 112.05 146.22 111.52
  Q 145.95 111.15 146.25 110.81
  Q 146.98 109.94 146.89 108.79
  A 0.77 0.75 -18.8 0 1 147.25 108.08
  Q 147.94 107.65 147.60 106.91
  Q 147.42 106.52 147.66 106.16
  L 150.52 101.90
  A 0.29 0.29 0.0 0 1 151.01 101.92
  Q 152.24 103.99 153.70 103.13
  Q 165.35 103.05 177.00 102.95
  Q 179.57 102.93 181.00 100.49
  Q 186.74 90.65 198.29 71.98
  C 200.28 69.74 200.27 65.80 196.50 65.85
  Q 186.55 66.00 167.79 65.80
  L 178.98 65.73
  Q 179.19 65.73 179.19 65.52
  L 179.19 65.51
  Q 179.18 65.31 178.98 65.31
  Q 162.76 65.60 146.51 65.31
  A 0.31 0.30 -56.9 0 1 146.39 64.73
  Q 146.72 64.57 146.86 64.35
  Q 146.99 64.13 146.76 64.01
  Q 146.64 63.95 146.52 63.89
  Q 146.43 63.85 146.49 63.77
  Q 146.96 63.15 147.75 63.10
  C 149.93 62.95 151.57 63.18 153.44 61.87
  Q 153.84 61.59 154.32 61.62
  Q 155.20 61.69 155.98 61.32
  C 157.36 60.67 158.40 60.35 158.73 59.04
  Q 158.84 58.58 159.30 58.50
  Q 161.52 58.07 164.49 58.14
  Q 164.78 58.14 164.85 57.88
  Q 164.93 57.59 165.24 57.60
  Q 168.21 57.77 171.18 57.98
  C 172.63 58.09 173.95 57.66 175.50 57.70
  Q 182.85 57.90 195.25 57.53
  Q 201.69 57.33 206.98 61.47
  Z"
/>
<path fill="#c4c4c6" d="
  M 209.12 65.31
  Q 209.61 67.55 211.60 71.64
  Q 213.76 76.09 210.73 80.09
  Q 210.44 80.47 210.38 80.94
  Q 210.23 82.17 209.34 82.92
  Q 208.95 83.25 208.78 83.74
  Q 207.84 86.47 206.15 88.75
  Q 204.93 90.39 204.15 91.75
  Q 203.55 92.79 202.86 93.78
  C 201.57 95.64 201.02 97.90 199.75 99.85
  C 198.69 101.47 197.99 103.19 196.94 104.79
  Q 196.67 105.20 196.59 105.69
  C 196.45 106.55 195.73 107.12 195.37 107.79
  Q 193.61 111.08 191.33 114.01
  Q 190.01 115.70 188.09 116.51
  C 181.69 119.19 173.22 116.70 166.29 118.07
  C 160.72 119.18 162.70 123.76 164.48 127.06
  Q 165.24 128.48 165.89 130.57
  C 166.62 132.87 167.78 134.59 168.41 137.07
  C 168.78 138.56 169.66 139.67 169.88 141.08
  Q 170.65 145.93 168.83 150.86
  Q 168.43 151.97 167.67 152.67
  A 0.46 0.42 87.4 0 0 167.57 152.79
  L 162.19 162.12
  Q 161.97 162.51 161.87 162.95
  Q 161.75 163.56 161.15 164.30
  Q 158.34 167.77 156.77 172.78
  C 156.22 174.53 155.18 175.50 154.34 177.10
  Q 154.05 177.65 153.79 179.00
  C 153.36 181.15 151.43 182.68 150.30 184.21
  Q 147.96 187.36 143.36 188.13
  C 139.47 188.77 132.69 189.64 128.19 188.53
  C 124.76 187.67 120.46 188.13 116.90 188.12
  Q 116.42 188.12 115.98 188.33
  C 113.81 189.39 111.53 189.50 109.79 191.76
  Q 107.98 194.10 107.11 194.91
  C 105.03 196.86 102.88 198.64 101.91 200.48
  Q 101.69 200.91 101.31 201.21
  Q 99.47 202.67 97.32 205.71
  Q 95.71 207.97 92.24 209.59
  Q 91.96 209.72 92.23 209.86
  Q 92.36 209.94 92.50 210.00
  A 0.12 0.12 0.0 0 1 92.50 210.22
  Q 88.54 212.19 84.67 209.86
  A 0.61 0.58 -75.0 0 1 84.39 209.35
  Q 84.39 208.90 83.99 208.87
  Q 83.31 208.83 83.09 208.19
  Q 82.46 206.36 80.19 205.58
  Q 86.53 207.33 90.38 203.38
  Q 99.90 193.64 109.37 183.86
  Q 110.17 183.04 111.75 183.10
  Q 126.74 183.68 141.14 182.49
  Q 146.43 178.82 149.20 172.98
  L 163.66 148.73
  Q 167.19 144.67 167.54 139.76
  Q 167.73 136.93 165.93 132.79
  Q 163.09 126.29 160.39 120.34
  L 157.53 113.38
  Q 157.37 112.99 157.74 112.79
  Q 157.86 112.72 158.05 112.72
  L 170.78 112.66
  C 174.95 112.72 179.98 113.46 183.56 111.62
  C 187.20 109.76 188.65 107.16 190.71 103.76
  Q 198.85 90.39 206.78 76.85
  Q 210.54 71.49 209.12 65.31
  Z"
/>
<path fill="#c4c4c6" d="
  M 128.14 70.84
  Q 117.13 70.37 107.99 70.60
  Q 104.82 70.67 102.40 72.65
  C 101.30 73.54 100.81 75.05 99.55 76.07
  Q 99.16 76.38 98.98 76.84
  C 98.48 78.14 97.46 78.80 96.88 79.90
  Q 93.51 86.33 89.93 92.66
  Q 89.65 93.16 89.51 93.70
  A 1.51 1.46 72.6 0 1 89.24 94.24
  Q 86.50 97.65 84.90 101.71
  Q 84.50 102.73 85.58 102.89
  L 86.72 103.05
  L 81.45 103.08
  Q 80.86 103.09 80.45 102.66
  Q 78.51 100.62 80.41 97.45
  Q 88.93 83.23 98.52 67.37
  A 3.12 3.11 -74.3 0 1 101.18 65.87
  L 125.36 65.86
  Q 125.93 65.86 126.17 66.39
  L 128.14 70.84
  Z"
/>
<path fill="#c4c4c6" d="
  M 167.79 65.80
  Q 186.55 66.00 196.50 65.85
  C 200.27 65.80 200.28 69.74 198.29 71.98
  Q 198.37 71.42 197.56 70.93
  Q 197.09 70.65 196.38 70.65
  Q 171.43 70.60 146.47 70.62
  Q 145.01 70.63 143.95 71.32
  Q 142.38 72.34 142.00 73.23
  C 140.86 75.84 144.21 82.12 145.55 84.51
  C 146.42 86.08 146.98 88.05 148.25 89.69
  A 1.27 1.27 0.0 0 1 148.52 90.53
  Q 148.48 91.30 148.94 91.63
  Q 149.38 91.94 149.51 92.46
  C 150.40 95.74 151.71 98.59 152.90 101.74
  Q 153.04 102.11 152.71 102.54
  L 136.80 66.88
  A 0.73 0.73 0.0 0 1 137.47 65.85
  L 167.79 65.80
  Z"
/>
<path fill="#ffffff" d="
  M 128.14 70.84
  L 142.02 102.53
  A 0.36 0.36 0.0 0 1 141.69 103.03
  L 86.72 103.05
  L 85.58 102.89
  Q 84.50 102.73 84.90 101.71
  Q 86.50 97.65 89.24 94.24
  A 1.51 1.46 72.6 0 0 89.51 93.70
  Q 89.65 93.16 89.93 92.66
  Q 93.51 86.33 96.88 79.90
  C 97.46 78.80 98.48 78.14 98.98 76.84
  Q 99.16 76.38 99.55 76.07
  C 100.81 75.05 101.30 73.54 102.40 72.65
  Q 104.82 70.67 107.99 70.60
  Q 117.13 70.37 128.14 70.84
  Z"
/>
<path fill="#ffffff" d="
  M 198.29 71.98
  Q 186.74 90.65 181.00 100.49
  Q 179.57 102.93 177.00 102.95
  Q 165.35 103.05 153.70 103.13
  Q 153.15 103.00 152.71 102.54
  Q 153.04 102.11 152.90 101.74
  C 151.71 98.59 150.40 95.74 149.51 92.46
  Q 149.38 91.94 148.94 91.63
  Q 148.48 91.30 148.52 90.53
  A 1.27 1.27 0.0 0 0 148.25 89.69
  C 146.98 88.05 146.42 86.08 145.55 84.51
  C 144.21 82.12 140.86 75.84 142.00 73.23
  Q 142.38 72.34 143.95 71.32
  Q 145.01 70.63 146.47 70.62
  Q 171.43 70.60 196.38 70.65
  Q 197.09 70.65 197.56 70.93
  Q 198.37 71.42 198.29 71.98
  Z"
/>
<path fill="#4b39ef" d="
  M 206.78 76.85
  Q 198.85 90.39 190.71 103.76
  C 188.65 107.16 187.20 109.76 183.56 111.62
  C 179.98 113.46 174.95 112.72 170.78 112.66
  C 175.37 112.51 180.72 113.16 184.78 110.24
  Q 186.59 108.95 188.42 106.15
  C 189.81 104.03 191.08 102.24 192.27 99.83
  C 193.68 96.97 195.64 94.35 197.14 91.66
  Q 198.98 88.35 201.27 85.33
  A 0.36 0.36 0.0 0 0 201.36 85.12
  Q 201.37 84.99 201.40 84.85
  Q 201.42 84.78 201.46 84.72
  C 203.00 82.79 203.51 80.46 205.12 78.74
  Q 205.96 77.83 206.78 76.85
  Z"
/>
<path fill="#4b39ef" d="
  M 158.05 112.72
  Q 157.86 112.72 157.74 112.79
  Q 157.37 112.99 157.53 113.38
  L 160.39 120.34
  Q 158.57 118.88 157.74 116.59
  C 157.27 115.27 156.68 114.28 156.51 112.81
  Q 156.46 112.38 156.89 112.41
  Q 157.46 112.44 158.05 112.72
  Z"
/>
<path fill="#c4c4c6" d="
  M 146.81 112.77
  L 148.63 117.24
  Q 121.74 117.04 94.69 117.11
  C 92.72 117.12 91.93 117.75 90.25 118.65
  Q 89.67 118.96 89.52 119.59
  Q 89.39 120.11 88.86 120.06
  Q 87.81 119.94 87.93 120.53
  L 84.98 113.94
  A 0.73 0.72 78.0 0 1 85.64 112.92
  L 146.81 112.77
  Z"
/>
<path fill="#ffffff" d="
  M 148.63 117.24
  L 152.29 126.03
  Q 152.46 126.45 152.01 126.45
  L 91.19 126.57
  A 0.97 0.96 -11.5 0 1 90.30 125.99
  L 87.93 120.53
  Q 87.81 119.94 88.86 120.06
  Q 89.39 120.11 89.52 119.59
  Q 89.67 118.96 90.25 118.65
  C 91.93 117.75 92.72 117.12 94.69 117.11
  Q 121.74 117.04 148.63 117.24
  Z"
/>
<path fill="#c4c4c6" d="
  M 157.32 141.35
  Q 156.76 141.76 156.36 142.52
  C 155.37 140.49 152.68 140.37 150.74 140.37
  Q 132.27 140.38 113.80 140.37
  C 111.96 140.37 109.01 139.83 106.60 140.26
  C 104.17 140.70 101.54 140.26 99.51 142.80
  Q 99.17 143.22 99.31 143.74
  L 101.30 151.18
  L 95.11 137.25
  A 0.85 0.85 0.0 0 1 95.89 136.06
  Q 119.61 136.06 143.47 136.02
  C 146.14 136.01 150.21 135.76 153.59 135.92
  Q 155.95 136.03 156.99 137.11
  Q 158.58 138.76 157.32 141.35
  Z"
/>
<path fill="#ffffff" d="
  M 156.36 142.52
  L 138.84 171.75
  A 2.82 2.80 -74.5 0 1 136.43 173.12
  L 111.51 173.22
  C 110.83 170.53 109.53 168.10 108.73 165.53
  C 107.97 163.09 107.00 160.99 105.96 158.32
  Q 104.92 155.65 102.54 154.05
  L 101.30 151.18
  L 99.31 143.74
  Q 99.17 143.22 99.51 142.80
  C 101.54 140.26 104.17 140.70 106.60 140.26
  C 109.01 139.83 111.96 140.37 113.80 140.37
  Q 132.27 140.38 150.74 140.37
  C 152.68 140.37 155.37 140.49 156.36 142.52
  Z"
/>
<path fill="#c4c4c6" d="
  M 90.62 151.36
  Q 86.38 156.40 82.67 162.95
  Q 82.37 163.49 82.34 163.97
  Q 82.31 164.49 81.95 164.87
  Q 79.61 167.38 78.77 170.67
  Q 78.65 171.12 78.33 171.47
  Q 77.46 172.40 78.81 173.20
  C 77.03 173.32 74.60 173.65 73.41 172.12
  Q 72.13 170.46 73.58 168.06
  Q 80.51 156.60 87.29 145.20
  A 0.36 0.35 -41.1 0 1 87.92 145.24
  L 90.62 151.36
  Z"
/>
<path fill="#4b39ef" d="
  M 163.66 148.73
  L 149.20 172.98
  Q 155.61 160.32 163.66 148.73
  Z"
/>
<path fill="#ffffff" d="
  M 90.62 151.36
  L 99.95 172.67
  A 0.33 0.33 0.0 0 1 99.64 173.13
  L 78.81 173.20
  Q 77.46 172.40 78.33 171.47
  Q 78.65 171.12 78.77 170.67
  Q 79.61 167.38 81.95 164.87
  Q 82.31 164.49 82.34 163.97
  Q 82.37 163.49 82.67 162.95
  Q 86.38 156.40 90.62 151.36
  Z"
/>
<path fill="#c4c4c6" d="
  M 102.54 154.05
  Q 104.92 155.65 105.96 158.32
  C 107.00 160.99 107.97 163.09 108.73 165.53
  C 109.53 168.10 110.83 170.53 111.51 173.22
  Q 109.90 172.35 109.85 171.09
  Q 109.84 170.64 109.64 170.23
  L 108.03 167.01
  L 102.54 154.05
  Z"
/>
<path fill="#c4c4c6" d="
  M 78.71 182.96
  L 95.46 182.71
  A 0.52 0.52 0.0 0 1 95.85 183.58
  L 84.41 195.82
  A 0.52 0.52 0.0 0 1 83.56 195.67
  L 78.24 183.69
  A 0.52 0.52 0.0 0 1 78.71 182.96
  Z"
/>
</svg>
