<?xml version="1.0" encoding="utf-8"?>
<!-- Designed by Vexels.com - 2020 All Rights Reserved - https://vexels.com/terms-and-conditions/  -->
<svg version="1.1" id="Capa_1" xmlns="http://www.w3.org/2000/svg" xmlns:xlink="http://www.w3.org/1999/xlink" x="0px" y="0px"
	 viewBox="0 0 1200 1200" enable-background="new 0 0 1200 1200" xml:space="preserve">
<g>
	<path fill="#FFFFFF" d="M823.393,1039.665V935.703H152.529v103.962c0,46.906,38.164,85.069,85.069,85.069h500.7
		C785.222,1124.734,823.393,1086.57,823.393,1039.665z M567.528,1040.249H408.395c-6.974,0-12.635-5.655-12.635-12.634
		s5.661-12.633,12.635-12.633h159.132c6.974,0,12.635,5.655,12.635,12.633S574.502,1040.249,567.528,1040.249z"/>
	<path fill="#FFFFFF" d="M152.529,160.328v9.487h462.63c1.564,0,3.046,0.321,4.432,0.843c34.205-11.416,70.74-17.691,108.732-17.691
		c32.977,0,64.85,4.756,95.07,13.451v-6.09c0-46.902-38.171-85.061-85.095-85.061h-500.7
		C190.693,75.266,152.529,113.426,152.529,160.328z"/>
	<path fill="#FFFFFF" d="M383.917,497.375c0-130.215,72.652-243.764,179.535-302.294H152.529v715.355h670.864v-71.88v-10.224
		c-30.221,8.696-62.093,13.452-95.07,13.452C538.419,841.784,383.917,687.281,383.917,497.375z"/>
	<path fill="#FFC5C5" d="M835.532,196.813c-2.537-0.102-4.877-0.93-6.815-2.312c-31.592-10.499-65.324-16.269-100.395-16.269
		c-175.969,0-319.138,143.165-319.138,319.143c0,175.978,143.169,319.142,319.138,319.142
		c175.977,0,319.146-143.164,319.146-319.142C1047.469,358.997,958.923,240.957,835.532,196.813z M643.635,683.65
		c-14.399,0-26.075-11.675-26.075-26.077c0-14.401,11.676-26.077,26.075-26.077c14.403,0,26.077,11.676,26.077,26.077
		C669.712,671.975,658.038,683.65,643.635,683.65z M824.469,683.65c-14.401,0-26.075-11.675-26.075-26.077
		c0-14.401,11.674-26.077,26.075-26.077c14.403,0,26.079,11.676,26.079,26.077C850.548,671.975,838.872,683.65,824.469,683.65z
		 M891.509,395.671l-28.604,94.572c-1.48,4.898-5.766,8.418-10.857,8.916l-214.831,21.03c-0.072,0.009-0.142,0.005-0.214,0.011
		l7.369,52.843h197.716c6.974,0,12.633,5.654,12.633,12.633c0,6.979-5.659,12.633-12.633,12.633H633.375
		c-6.299,0-11.637-4.647-12.508-10.889l-26.575-190.622l-4.548-41.6h-24.361c-6.976,0-12.633-5.655-12.633-12.633
		c0-6.979,5.657-12.633,12.633-12.633h35.687c6.449,0,11.861,4.853,12.559,11.26l4.171,38.192h261.622
		c3.996,0,7.764,1.891,10.141,5.103C891.945,387.698,892.671,391.847,891.509,395.671z"/>
	<path fill="#FF8A93" d="M841.166,474.839l21.237-70.19H620.89l12.641,90.643c0.407-0.08,0.798-0.204,1.218-0.245L841.166,474.839z"
		/>
	<path fill="#565656" d="M879.421,379.383H617.799l-4.171-38.192c-0.698-6.407-6.11-11.26-12.559-11.26h-35.687
		c-6.976,0-12.633,5.654-12.633,12.633c0,6.978,5.657,12.633,12.633,12.633h24.361l4.548,41.6l26.575,190.622
		c0.872,6.242,6.209,10.889,12.508,10.889h208.713c6.974,0,12.633-5.654,12.633-12.633c0-6.978-5.659-12.633-12.633-12.633H644.372
		l-7.369-52.843c0.072-0.006,0.142-0.002,0.214-0.011l214.831-21.03c5.091-0.498,9.377-4.018,10.857-8.916l28.604-94.572
		c1.161-3.825,0.436-7.973-1.947-11.186C887.185,381.274,883.417,379.383,879.421,379.383z M633.531,495.292l-12.641-90.643h241.513
		l-21.237,70.19l-206.417,20.209C634.328,495.089,633.937,495.212,633.531,495.292z"/>
	<path fill="#565656" d="M643.635,631.496c-14.399,0-26.075,11.676-26.075,26.077c0,14.402,11.676,26.077,26.075,26.077
		c14.403,0,26.077-11.675,26.077-26.077C669.712,643.172,658.038,631.496,643.635,631.496z"/>
	<path fill="#565656" d="M824.469,631.496c-14.401,0-26.075,11.676-26.075,26.077c0,14.402,11.674,26.077,26.075,26.077
		c14.403,0,26.079-11.675,26.079-26.077C850.548,643.172,838.872,631.496,824.469,631.496z"/>
	<path fill="#565656" d="M567.528,1014.982H408.395c-6.974,0-12.635,5.655-12.635,12.633s5.661,12.634,12.635,12.634h159.132
		c6.974,0,12.635-5.655,12.635-12.634S574.502,1014.982,567.528,1014.982z"/>
	<path fill="#565656" d="M1072.737,497.375c0-147.59-93.341-273.754-224.077-322.671v-14.376C848.659,99.493,799.155,50,738.299,50
		h-500.7c-60.838,0-110.335,49.493-110.335,110.328v22.12V923.07v116.595c0,60.839,49.497,110.335,110.335,110.335h500.7
		c60.856,0,110.361-49.497,110.361-110.335V923.07v-84.514v-16.845c0-0.549-0.093-1.072-0.161-1.601
		C979.318,771.238,1072.737,645.027,1072.737,497.375z M237.599,1124.734c-46.906,0-85.069-38.163-85.069-85.069V935.703h670.864
		v103.962c0,46.906-38.171,85.069-85.095,85.069H237.599z M738.299,75.266c46.923,0,85.095,38.159,85.095,85.061v6.09
		c-30.221-8.696-62.093-13.451-95.07-13.451c-37.992,0-74.528,6.276-108.732,17.691c-1.385-0.522-2.867-0.843-4.432-0.843h-462.63
		v-9.487c0-46.902,38.164-85.061,85.069-85.061H738.299z M823.393,838.556v71.88H152.529V195.081h410.923
		C456.57,253.611,383.917,367.16,383.917,497.375c0,189.906,154.502,344.409,344.406,344.409c32.977,0,64.85-4.756,95.07-13.452
		V838.556z M728.323,816.517c-175.969,0-319.138-143.164-319.138-319.142c0-175.977,143.169-319.143,319.138-319.143
		c35.07,0,68.803,5.77,100.395,16.269c1.938,1.381,4.278,2.21,6.815,2.312c123.391,44.144,211.936,162.184,211.936,300.562
		C1047.469,673.353,904.3,816.517,728.323,816.517z"/>
</g>
</svg>
